<svg viewBox="0 0 330 200" xmlns="http://www.w3.org/2000/svg"><g><g><g><g><g><line x1="72.34375" y1="177" x2="67.34375" y2="177" style="visibility: inherit;" fill="rgb(0, 0, 0)" stroke="rgb(204, 204, 204)" stroke-width="1px"></line><line x1="72.34375" y1="159.29999999999998" x2="67.34375" y2="159.29999999999998" style="visibility: inherit;" fill="rgb(0, 0, 0)" stroke="rgb(204, 204, 204)" stroke-width="1px"></line><line x1="72.34375" y1="141.6" x2="67.34375" y2="141.6" style="visibility: inherit;" fill="rgb(0, 0, 0)" stroke="rgb(204, 204, 204)" stroke-width="1px"></line><line x1="72.34375" y1="123.90000000000003" x2="67.34375" y2="123.90000000000003" style="visibility: inherit;" fill="rgb(0, 0, 0)" stroke="rgb(204, 204, 204)" stroke-width="1px"></line><line x1="72.34375" y1="106.20000000000003" x2="67.34375" y2="106.20000000000003" style="visibility: inherit;" fill="rgb(0, 0, 0)" stroke="rgb(204, 204, 204)" stroke-width="1px"></line><line x1="72.34375" y1="88.50000000000004" x2="67.34375" y2="88.50000000000004" style="visibility: inherit;" fill="rgb(0, 0, 0)" stroke="rgb(204, 204, 204)" stroke-width="1px"></line><line x1="72.34375" y1="70.80000000000003" x2="67.34375" y2="70.80000000000003" style="visibility: inherit;" fill="rgb(0, 0, 0)" stroke="rgb(204, 204, 204)" stroke-width="1px"></line><line x1="72.34375" y1="53.10000000000003" x2="67.34375" y2="53.10000000000003" style="visibility: inherit;" fill="rgb(0, 0, 0)" stroke="rgb(204, 204, 204)" stroke-width="1px"></line><line x1="72.34375" y1="35.40000000000001" x2="67.34375" y2="35.40000000000001" style="visibility: inherit;" fill="rgb(0, 0, 0)" stroke="rgb(204, 204, 204)" stroke-width="1px"></line><line x1="72.34375" y1="17.700000000000074" x2="67.34375" y2="17.700000000000074" style="visibility: inherit;" fill="rgb(0, 0, 0)" stroke="rgb(204, 204, 204)" stroke-width="1px"></line><line x1="72.34375" y1="0" x2="67.34375" y2="0" style="visibility: inherit;" fill="rgb(0, 0, 0)" stroke="rgb(204, 204, 204)" stroke-width="1px"></line></g><g transform="translate(62.34375, 0)"><text x="0" y="177" dx="0em" dy="0.3em" style="text-anchor: end; visibility: hidden; font-family: Roboto, sans-serif; font-size: 12px; font-weight: 200;" fill="rgb(33, 33, 33)" stroke="none" stroke-width="1px">4.6e-5</text><text x="0" y="159.29999999999998" dx="0em" dy="0.3em" style="text-anchor: end; visibility: inherit; font-family: Roboto, sans-serif; font-size: 12px; font-weight: 200;" fill="rgb(33, 33, 33)" stroke="none" stroke-width="1px">4.8e-5</text><text x="0" y="141.6" dx="0em" dy="0.3em" style="text-anchor: end; visibility: hidden; font-family: Roboto, sans-serif; font-size: 12px; font-weight: 200;" fill="rgb(33, 33, 33)" stroke="none" stroke-width="1px">5e-5</text><text x="0" y="123.90000000000003" dx="0em" dy="0.3em" style="text-anchor: end; visibility: inherit; font-family: Roboto, sans-serif; font-size: 12px; font-weight: 200;" fill="rgb(33, 33, 33)" stroke="none" stroke-width="1px">5.2e-5</text><text x="0" y="106.20000000000003" dx="0em" dy="0.3em" style="text-anchor: end; visibility: hidden; font-family: Roboto, sans-serif; font-size: 12px; font-weight: 200;" fill="rgb(33, 33, 33)" stroke="none" stroke-width="1px">5.4e-5</text><text x="0" y="88.50000000000004" dx="0em" dy="0.3em" style="text-anchor: end; visibility: inherit; font-family: Roboto, sans-serif; font-size: 12px; font-weight: 200;" fill="rgb(33, 33, 33)" stroke="none" stroke-width="1px">5.6e-5</text><text x="0" y="70.80000000000003" dx="0em" dy="0.3em" style="text-anchor: end; visibility: hidden; font-family: Roboto, sans-serif; font-size: 12px; font-weight: 200;" fill="rgb(33, 33, 33)" stroke="none" stroke-width="1px">5.8e-5</text><text x="0" y="53.10000000000003" dx="0em" dy="0.3em" style="text-anchor: end; visibility: inherit; font-family: Roboto, sans-serif; font-size: 12px; font-weight: 200;" fill="rgb(33, 33, 33)" stroke="none" stroke-width="1px">6e-5</text><text x="0" y="35.40000000000001" dx="0em" dy="0.3em" style="text-anchor: end; visibility: hidden; font-family: Roboto, sans-serif; font-size: 12px; font-weight: 200;" fill="rgb(33, 33, 33)" stroke="none" stroke-width="1px">6.2e-5</text><text x="0" y="17.700000000000074" dx="0em" dy="0.3em" style="text-anchor: end; visibility: inherit; font-family: Roboto, sans-serif; font-size: 12px; font-weight: 200;" fill="rgb(33, 33, 33)" stroke="none" stroke-width="1px">6.4e-5</text><text x="0" y="0" dx="0em" dy="0.3em" style="text-anchor: end; visibility: hidden; font-family: Roboto, sans-serif; font-size: 12px; font-weight: 200;" fill="rgb(33, 33, 33)" stroke="none" stroke-width="1px">6.6e-5</text></g><line x1="72.34375" y1="0" x2="72.34375" y2="177" fill="rgb(0, 0, 0)" stroke="rgb(204, 204, 204)" stroke-width="1px"></line></g></g><g transform="translate(72, 0)" clip-path="url(#clip_0)"><clipPath id="clip_0"><rect width="257" height="177"></rect></clipPath><g><g><g><line x1="0" y1="0" x2="0" y2="177" fill="rgb(0, 0, 0)" stroke="rgb(66, 66, 66)" stroke-width="1px" opacity="0.25"></line><line x1="19.81971153846154" y1="0" x2="19.81971153846154" y2="177" fill="rgb(0, 0, 0)" stroke="rgb(66, 66, 66)" stroke-width="1px" opacity="0.25"></line><line x1="39.63942307692308" y1="0" x2="39.63942307692308" y2="177" fill="rgb(0, 0, 0)" stroke="rgb(66, 66, 66)" stroke-width="1px" opacity="0.25"></line><line x1="59.45913461538462" y1="0" x2="59.45913461538462" y2="177" fill="rgb(0, 0, 0)" stroke="rgb(66, 66, 66)" stroke-width="1px" opacity="0.25"></line><line x1="79.27884615384616" y1="0" x2="79.27884615384616" y2="177" fill="rgb(0, 0, 0)" stroke="rgb(66, 66, 66)" stroke-width="1px" opacity="0.25"></line><line x1="99.0985576923077" y1="0" x2="99.0985576923077" y2="177" fill="rgb(0, 0, 0)" stroke="rgb(66, 66, 66)" stroke-width="1px" opacity="0.25"></line><line x1="118.91826923076924" y1="0" x2="118.91826923076924" y2="177" fill="rgb(0, 0, 0)" stroke="rgb(66, 66, 66)" stroke-width="1px" opacity="0.25"></line><line x1="138.73798076923077" y1="0" x2="138.73798076923077" y2="177" fill="rgb(0, 0, 0)" stroke="rgb(66, 66, 66)" stroke-width="1px" opacity="0.25"></line><line x1="158.55769230769232" y1="0" x2="158.55769230769232" y2="177" fill="rgb(0, 0, 0)" stroke="rgb(66, 66, 66)" stroke-width="1px" opacity="0.25"></line><line x1="178.37740384615384" y1="0" x2="178.37740384615384" y2="177" fill="rgb(0, 0, 0)" stroke="rgb(66, 66, 66)" stroke-width="1px" opacity="0.25"></line><line x1="198.1971153846154" y1="0" x2="198.1971153846154" y2="177" fill="rgb(0, 0, 0)" stroke="rgb(66, 66, 66)" stroke-width="1px" opacity="0.25"></line><line x1="218.01682692307693" y1="0" x2="218.01682692307693" y2="177" fill="rgb(0, 0, 0)" stroke="rgb(66, 66, 66)" stroke-width="1px" opacity="0.25"></line><line x1="237.83653846153848" y1="0" x2="237.83653846153848" y2="177" fill="rgb(0, 0, 0)" stroke="rgb(66, 66, 66)" stroke-width="1px" opacity="0.25"></line><line x1="257.65625" y1="0" x2="257.65625" y2="177" fill="rgb(0, 0, 0)" stroke="rgb(66, 66, 66)" stroke-width="1px" opacity="0.25"></line></g><g><line x1="0" y1="177" x2="257.65625" y2="177" fill="rgb(0, 0, 0)" stroke="rgb(66, 66, 66)" stroke-width="1px" opacity="0.25"></line><line x1="0" y1="159.29999999999998" x2="257.65625" y2="159.29999999999998" fill="rgb(0, 0, 0)" stroke="rgb(66, 66, 66)" stroke-width="1px" opacity="0.25"></line><line x1="0" y1="141.6" x2="257.65625" y2="141.6" fill="rgb(0, 0, 0)" stroke="rgb(66, 66, 66)" stroke-width="1px" opacity="0.25"></line><line x1="0" y1="123.90000000000003" x2="257.65625" y2="123.90000000000003" fill="rgb(0, 0, 0)" stroke="rgb(66, 66, 66)" stroke-width="1px" opacity="0.25"></line><line x1="0" y1="106.20000000000003" x2="257.65625" y2="106.20000000000003" fill="rgb(0, 0, 0)" stroke="rgb(66, 66, 66)" stroke-width="1px" opacity="0.25"></line><line x1="0" y1="88.50000000000004" x2="257.65625" y2="88.50000000000004" fill="rgb(0, 0, 0)" stroke="rgb(66, 66, 66)" stroke-width="1px" opacity="0.25"></line><line x1="0" y1="70.80000000000003" x2="257.65625" y2="70.80000000000003" fill="rgb(0, 0, 0)" stroke="rgb(66, 66, 66)" stroke-width="1px" opacity="0.25"></line><line x1="0" y1="53.10000000000003" x2="257.65625" y2="53.10000000000003" fill="rgb(0, 0, 0)" stroke="rgb(66, 66, 66)" stroke-width="1px" opacity="0.25"></line><line x1="0" y1="35.40000000000001" x2="257.65625" y2="35.40000000000001" fill="rgb(0, 0, 0)" stroke="rgb(66, 66, 66)" stroke-width="1px" opacity="0.25"></line><line x1="0" y1="17.700000000000074" x2="257.65625" y2="17.700000000000074" fill="rgb(0, 0, 0)" stroke="rgb(66, 66, 66)" stroke-width="1px" opacity="0.25"></line><line x1="0" y1="0" x2="257.65625" y2="0" fill="rgb(0, 0, 0)" stroke="rgb(66, 66, 66)" stroke-width="1px" opacity="0.25"></line></g></g></g><g><g><line x1="0" y1="584.0999999999999" x2="257.65625" y2="584.0999999999999" fill="rgb(0, 0, 0)" stroke="rgb(153, 153, 153)" stroke-width="1.5px"></line></g></g><g><g><line x1="0" y1="0" x2="0" y2="177" fill="rgb(0, 0, 0)" stroke="rgb(153, 153, 153)" stroke-width="1.5px"></line></g></g><g><g><g><g><g><path stroke="rgb(51, 187, 238)" stroke-width="2px" d="M8.086442307692309,-11.866523831200011L8.324278846153847,72.62460280459003L8.340134615384615,130.82780186116008L8.46698076923077,121.75216265692146L8.752384615384615,36.600105124619915L8.974365384615384,132.30327172177843L9.037788461538462,-10.219837459665039L9.370759615384616,24.002437886253098L9.402471153846154,23.401734884708997L9.830576923076924,59.09662106786639L9.87814423076923,93.38702308831328L9.941567307692308,119.81484391589312L10.068413461538462,103.54799138980935L10.369673076923078,101.1160960937073L10.559942307692307,20.893994563732658L10.972192307692309,104.51620646062337L11.210028846153847,78.14541650139847L11.225884615384615,136.5381723375162L11.447865384615385,35.86746971733208L11.638134615384615,-9.839166244754857L11.812548076923077,104.92003721615451L11.860115384615384,87.22573733632906L12.351644230769232,85.51121330405248L12.399211538461538,78.91131849243811L12.827317307692308,-146.6308894910803L13.921365384615385,-27.445762522685754L14.254336538461539,12.641511992170974L14.270192307692309,21.046024623353993L14.412894230769231,19.800126540573785L14.65073076923077,-102.82956296546905L14.718117788461539,-72.18969942527217L14.876675480769231,8.860447707037244L14.955954326923077,30.34769938946131L14.971810096153845,18.193103829182512L15.431627403846154,-26.484459311429L15.796310096153846,37.33074753213797L15.875588942307692,94.14226405387267L15.907300480769232,61.54574611263923L16.160992788461538,-10.967677809736344L16.256127403846154,93.27536196396368L16.700088942307694,59.035630188115675L16.76351201923077,103.79430134881262L16.795223557692307,73.72226966299556L17.318463942307694,87.82789503413001L17.445310096153843,-39.897593500738985L17.540444711538463,62.890781001417096L17.55630048076923,65.5323701453066L17.778281250000003,113.37487309639093L17.920983173076923,98.4269943854953L18.047829326923075,45.01020916608259L18.77719471153846,78.98825522221249L18.84061778846154,59.5742416849838L19.45899278846154,42.805985677863006L19.63340625,34.50169450168303L19.744396634615384,14.185675255669368L19.83953125,-123.5013088383657L20.09322355769231,41.44435859501185L20.53718509615385,64.75526228939235L20.933579326923077,50.85804048449898L21.07628125,-40.307360961346895L21.393396634615385,64.30749094527334L22.285283653846154,119.48197738712174L23.1890625,138.19012143229597L23.268341346153846,105.5676806125363L23.442754807692307,86.86373995809213L23.553745192307694,95.39958264168246L23.61716826923077,142.36082531493417L23.648879807692307,93.12151022842623L23.79158173076923,55.43448827568982L24.092841346153847,38.461357722327676L24.330677884615387,22.007146139554617L24.4258125,121.07466841607089L24.758783653846155,148.0229272971602L24.933197115384615,151.7297243484575L24.964908653846155,89.14517258915193L25.186889423076924,52.31842370049802L25.297879807692308,83.5736864753514L25.599139423076924,60.162535528258694L25.614995192307692,125.92029864287365L25.80526442307692,68.42332489472685L25.963822115384612,28.658381391833604L25.995533653846156,48.80429870919872L26.122379807692305,78.80073972735197L26.66147596153846,6.689904832875932L26.77246634615385,40.587368083489984L27.1054375,54.35597923063985L27.200572115384613,72.75293350439969L27.232283653846157,89.82697331628519L27.27985096153846,37.93123854069585L27.343274038461537,98.0617458490578L27.438408653846153,88.02402423872523L27.50183173076923,-82.1828943695283L27.929937499999998,-153.13770498290998L28.35804326923077,14.231214060660015L28.675158653846154,21.699338241049965L28.97641826923077,46.657146367327954L29.15083173076923,87.36818164073708L29.1666875,56.71980424988249L29.82073798076923,106.90311843153557L30.169564903846155,81.21033968899714L30.45496875,50.73860137769245L30.470824519230767,98.54350519418088L31.041632211538463,108.72475104292403L31.168478365384615,38.45363120970791L31.29532451923077,50.88290718962319L31.34289182692308,87.69977569804637L31.89784375,65.63911228817331L31.945411057692308,116.5020046945958L32.16739182692307,76.74171821897055L32.214959134615384,25.64600171895264L32.29423798076923,48.9341866634987L32.484507211538464,88.74945755938421L32.65892067307693,50.70996653563584L33.15044951923077,-111.57298724014413L33.27729567307692,-10.844552380250796L33.83224759615385,9.87259746697902L34.070084134615385,77.86844680758963L34.33963221153846,105.81341784780676L34.371343749999994,51.82442309992778L34.418911057692306,94.09194085869863L34.482334134615385,63.71204069112515L35.49710336538462,61.00738471528367L35.528814903846154,65.07010779806693L35.719084134615386,44.80254790705281L35.76665144230769,46.89906352518115L36.638718749999995,92.91509371698565L36.706105769230774,124.23313361006467L36.848807692307695,51.851000868818176L36.95979807692307,-45.14021763144459L37.467182692307695,30.476267313074324L37.51475,30.5049429109495L37.609884615384615,68.54343904198593L37.62574038461539,82.30974662922229L37.86357692307693,163.36451357443445L38.05384615384616,78.71387991737484L38.11726923076923,95.78814819804548L38.19654807692307,105.4684416036369L38.228259615384616,71.7237203244768L38.434384615384616,-73.5631034731183L38.450240384615384,-37.70810855539662L38.73564423076923,39.69652868474444L40.178519230769226,104.50087516744559L40.32122115384615,77.97400253103696L40.47977884615385,79.18671091346842L40.654192307692306,123.68170313404852L40.89202884615384,130.71834917335278L40.95545192307692,80.17621432596381L41.27256730769231,-42.87585078252925L42.382471153846154,-52.694336720895585L42.47760576923076,30.757771203216848L42.858144230769234,-7.745024243010142L44.13056971153846,-9.53318989885912L44.49525240384616,65.43204059748159L44.76480048076923,48.19918826025119L45.31975240384615,66.94566921276358L45.985694711538464,90.81500710823096L46.064973557692305,29.135363466482026L46.27109855769231,34.2622549339023L46.397944711538464,49.147928053071084L46.44551201923077,109.51959287640182L46.76262740384615,75.17833496514731L46.96875240384615,80.36851414372188L47.04803125,22.775817619414962L47.27001201923077,91.24405845378556L47.301723557692306,-16.185595098720015L47.47613701923077,52.750841336882694L48.22135817307692,82.17938960905343L48.23721394230769,106.99484954572036L48.57018509615385,-73.32099319201527L49.014146634615386,1.9805785330767405L49.14099278846154,47.95178029907978L49.26783894230769,26.522961119407068L49.695944711538466,5.89515307830651L49.75936778846154,105.7281675150969L49.87035817307692,98.72670152399463L49.91792548076923,108.46816364289442L50.06062740384615,-550.4564926863807L50.37774278846153,-33.28481856165459L50.44116586538462,24.313556583758444L50.631435096153844,19.18186279840584L50.71071394230769,20.075975191380966L50.78999278846154,86.48113369418489L50.80584855769231,72.65244638487091L51.01197355769231,76.95850932294806L51.027829326923076,101.66652628887782L51.04368509615385,133.6330332427797L51.20224278846154,104.23227589097596L51.249810096153844,64.39592392884309L51.412331730769225,22.217985679659737L51.523322115384616,86.78914858858863L51.951427884615384,8.462059591139257L52.300254807692305,37.156311532522714L52.4588125,16.81833758342228L52.72836057692307,58.06678464210195L52.74421634615385,66.59814289950701L53.679706730769226,88.73058131939788L54.171235576923074,56.37269528391351L54.218802884615386,30.90650057591163L54.32979326923077,104.9814976925376L54.37736057692308,137.89174011879174L54.50420673076923,132.72525010897104L55.23357211538461,164.1452348664464L55.471408653846154,105.08481461003643L55.677533653846154,155.78874109782805L56.24834134615385,159.06505886837135L56.26419711538461,105.75665678811568L56.565456730769235,130.6018983167678L56.581312499999996,142.85065000962388L56.59716826923077,131.40941054123164L56.81914903846154,64.77121564046155L56.83500480769231,61.323636095776386L56.850860576923075,71.96430503415021L56.96185096153847,108.13855254936026L57.23139903846154,104.9302374592434L57.675360576923076,80.67539362924438L57.97662019230769,144.57649289689385L58.087610576923076,58.29149918035068L58.166889423076924,31.27429918411518L58.373014423076924,89.0741831744783L58.42058173076923,123.85090644814333L58.56328365384615,108.94203531993718L58.75751682692307,92.66216257798357L59.13805528846154,115.25024363900793L59.18562259615385,128.3405662474012L59.78814182692307,109.4849923350102L60.32723798076923,90.13429961477145L60.580930288461545,55.67978213855419L60.866334134615386,72.12892094626143L61.04074759615385,46.86406553291956L61.16759375,91.3487976267097L61.34200721153846,118.89532018935651L61.563987980769234,139.3973670736348L62.245786057692314,107.18793020179042L62.594612980769234,87.97368609049532L62.610468749999995,148.00654529596517L62.72145913461539,105.19975406358591L62.75317067307692,84.23814308597431L62.86416105769231,83.31855154286933L63.27641105769231,124.32343312760841L63.910641826923076,140.8864007208803L63.95820913461538,106.9024817638433L64.06919951923076,162.78595178229816L64.25946875,109.36115671765464L64.44973798076923,161.48633414873032L64.65586298076923,121.7659079867893L64.67171875,135.0908396498919L64.70343028846155,85.89789137306428L64.9254110576923,145.22312553302987L65.30594951923077,106.63383020631035L65.35351682692308,124.16216365012782L65.3852283653846,107.68860184586315L65.41693990384616,44.86518836782429L65.46450721153846,87.27961103353432L65.52793028846153,111.4026826011694L65.57549759615385,99.1759584762698L65.87675721153846,116.04637625015245L66.22954807692308,135.92377122324933L66.30882692307692,50.472033730458286L66.80035576923078,61.76779262825793L66.89549038461539,70.76741084510368L67.00648076923076,74.3938122020889L67.03819230769231,27.111210398303747L67.33945192307692,74.97820905073362L67.46629807692308,141.28280862763128L68.38593269230769,73.96495546569976L68.41764423076924,87.64611272583798L68.57620192307692,52.21939041752958L68.71890384615385,71.83678241484529L69.24214423076923,119.64770037766785L69.38484615384615,60.88824153850609L69.44826923076924,45.53656551583757L69.54340384615384,51.45205870235113L69.73367307692308,83.86001429933904L69.78124038461537,108.99711359494717L70.25691346153846,107.91195736486331L70.39961538461539,87.80600909201905L70.49475,116.75839986167944L70.98627884615384,137.15612100856788L71.01799038461539,107.48446557298077L71.1606923076923,52.70759520748181L71.33510576923076,46.863879687153464L71.43024038461539,96.74780757238744L71.54123076923076,96.80014079758483L72.12789423076923,44.99193525185813L72.52428846153846,30.75690731324179L72.61942307692308,68.30128478655489L72.71455769230768,121.6730394763399L72.762125,112.56587251275567L73.11095192307693,123.41185571895468L73.66986778846154,92.50760073551747L73.84428125000001,14.848065931460516L74.39923317307692,108.18464988617103L74.74806009615384,81.41558510447322L74.79562740384615,96.50626338714136L74.87490625000001,67.57596069909644L75.84210817307692,60.225812553271695L75.92138701923078,77.3208287462551L76.00066586538462,104.29509112965911L76.09580048076923,87.72872887844808L77.06300240384616,103.80943938690112L77.49110817307692,88.23933660651663L77.69723317307692,41.06035685175211L77.82407932692308,17.280308716566207L77.99849278846153,68.63619907497915L78.18876201923077,59.61470419668251L78.55344471153846,135.51339686817292L79.12425240384616,112.96151118321018L79.28281009615384,115.50684415404902L79.34623317307691,106.0481857224357L79.74262740384616,146.11911230533906L79.80605048076923,82.35616529868396L79.90118509615385,99.24180843619594L80.45613701923078,113.95711061695431L80.50370432692308,93.79667421538258L81.09433173076923,59.51845595198983L81.25288942307692,37.171601391374324L81.55414903846153,115.811093569181L81.68099519230769,155.08136196099457L81.74441826923078,142.21492909893476L81.7761298076923,160.26218153390622L81.87126442307692,27.75968371668158L82.01396634615384,51.58684241950197L82.15666826923078,110.62158396335877L82.37864903846155,102.98761520242971L82.48963942307692,81.5778603002877L82.83846634615385,103.08729545310261L82.94945673076924,113.107086042269L83.04459134615384,143.31429876363117L83.10801442307692,109.25128215596384L83.12387019230769,84.26807184378612L83.59954326923076,79.07840877763887L83.96422596153846,114.37814649822842L83.9959375,116.88504611403205L84.04350480769232,107.96756113933934L84.05936057692308,133.41355809102473L84.18620673076923,110.66388542384966L84.78872596153846,109.7639243136265L84.99485096153846,78.18986613644665L85.2326875,40.18798468550213L85.53394711538462,19.730690221721645L85.5973701923077,58.29228865509682L85.70836057692308,88.94603207652733L85.8510625,54.95141261626471L86.34259134615385,126.15664784796842L86.51700480769232,84.1235560515683L87.02438942307691,112.60988526120764L87.40492788461539,145.0668053573593L87.7061875,59.61054609346303L87.9123125,22.575870623911907L87.92816826923077,16.97358647895473L88.05897836538462,29.402505614832396L88.09068990384615,103.05557515773042L88.75663221153846,123.84465568469741L88.82005528846153,87.41168188908141L88.8834783653846,134.85672973576234L89.05789182692307,123.89259791228069L89.07374759615385,61.09740461916764L89.10545913461539,-37.11423856312558L89.12131490384614,19.136627729949588L89.62869951923076,130.46845385153165L89.80311298076923,154.6527162991997L89.83482451923076,135.20161868241854L89.9141033653846,130.40792836773073L89.94581490384616,95.18250030283096L90.12022836538462,88.30307535889672L90.23121875,62.311163043806L90.43734375,77.26425156963464L90.67518028846155,105.10083953171109L90.81788221153846,108.56441004327672L90.86544951923076,42.20121076615782L91.34112259615384,68.95827168904118L91.70580528846153,27.838324957859086L91.72166105769232,49.85876003208036L91.76922836538462,121.69349384782531L91.80093990384616,81.47780827627592L91.86436298076923,76.67925042160665L91.95949759615385,58.89519226812714L92.40345913461539,111.93717523614636L92.53030528846155,130.9284579298499L92.89498798076923,65.79978615806775L93.05354567307693,108.36888841066373L93.71948798076924,128.8664493118103L93.86218990384616,125.37286679363248L93.94146875,130.65398601495977L94.65497836538462,97.28951458571707L94.73425721153846,22.792955273780283L94.92452644230768,59.32717981113397L95.30902884615385,90.62630110394383L95.65785576923078,74.75561887107399L96.24451923076923,66.64340319753751L97.24343269230769,138.37846505032564L98.13135576923077,144.4653970958111L98.24234615384616,80.98855384037886L98.67045192307693,102.35720497882423L98.68630769230768,46.2751592746355L99.05099038461539,89.47135086928826L99.17783653846153,96.55554587683088L99.85963461538462,88.64480855495994L100.39873076923077,108.52750153123594L100.60485576923077,138.14325970259338L100.65242307692309,113.61702349751124L101.69890384615385,103.28082100687246L101.82575,106.08027873797833L101.95259615384614,122.69399769482416L102.22214423076923,79.10001165355119L102.36484615384614,123.93674317267346L102.47583653846154,112.75977631837182L102.57097115384616,111.17660569327646L102.67006971153846,91.0313248754832L103.24087740384616,117.67422552931457L103.3677235576923,47.20559053656095L103.76411778846153,30.15235992505838L103.77997355769232,50.629810634774365L104.28735817307691,74.33559980158567L104.31906971153846,86.93438900806747L104.63618509615384,132.96595127958926L104.7154639423077,209.2045916621004L104.74717548076923,159.1326898266878L104.77888701923077,83.31446394574665L105.19113701923077,105.30053957248461L105.77780048076923,60.08099974070097L106.09491586538462,51.34873415784214L106.38031971153846,48.64644740324444L106.95112740384616,46.943488460679326L106.9828389423077,58.73389056219294L107.09382932692307,0.08882618211912063L107.23653125,73.46177693850058L107.28409855769232,109.7045799401567L107.79148317307691,75.20536772512942L107.82319471153846,52.18252879814585L108.02931971153846,69.6020319870965L108.20373317307693,54.151299377671734L108.2195889423077,153.2497059112848L108.29886778846154,94.02383001607726L108.37814663461539,47.18672983507661L108.96481009615385,65.04489902424793L109.2502139423077,107.03079379838434L109.5514735576923,52.78358578456958L109.80516586538461,74.40029535340734L110.03111057692308,101.81998186463704L110.31651442307692,111.61278866873087L110.36408173076923,73.90296371491281L110.90317788461539,137.1458262120823L110.95074519230769,139.76743311408669L111.0934471153846,81.75280445660864L111.18858173076923,95.23676969087083L111.26786057692307,89.3152004553785L111.47398557692307,111.81924139541967L111.55326442307691,104.98237994228779L111.80695673076923,66.21796854839619L111.88623557692307,90.14193429987753L111.96551442307693,119.38185395992356L112.02893750000001,148.25656800941638L112.2826298076923,149.42382227775073L112.82172596153846,62.838186797070385L113.20226442307693,93.1691859299113L113.86820673076923,82.47347265084096L113.94748557692307,106.78020070217372L114.10604326923077,104.46939852911022L114.16946634615385,93.07271346948546L114.42315865384614,109.07208797065887L114.59757211538461,71.28705857937538L114.97811057692307,116.38905704986007L115.24765865384616,137.87711182861074L115.54891826923077,103.90344331539205L115.88188942307693,118.781245712472L115.91360096153846,153.61809628472164L116.00873557692307,130.3560903346867L116.1514375,69.35230283899897L116.4051298076923,67.00534678399282L117.02350480769232,95.82558001249183L117.05521634615384,119.6052440392091L117.10278365384616,161.62402011178543L117.28116105769232,146.68029045826833L117.39215144230768,136.6628033888712L117.99467067307693,150.82676337763218L118.24836298076923,48.98425337033112L118.32764182692308,133.6472756946324L118.3593533653846,158.72820563399307L118.67646875,102.14221960263762L118.85088221153846,85.1548133288064L119.08871875,91.31266997750363L119.2472764423077,104.69088603623184L120.24618990384616,87.28220648534142L120.29375721153846,165.93058209766582L120.38889182692309,168.52440334054702L120.9914110576923,119.25344664908636L121.19753605769232,39.12816095292158L121.21339182692307,101.18518077122417L121.24510336538462,30.309957142620426L121.34023798076923,61.102941013258416L121.38780528846154,69.04815578898283L121.67320913461539,117.48098454124057L121.95861298076923,101.32025743421345L122.3391514423077,91.7683472197301L122.40257451923077,85.37647756792627L122.59284375,99.28561651627426L122.73554567307691,82.95251959565059L123.27464182692307,122.80083078010631L123.68689182692307,114.25549774986959L123.75031490384615,137.95777151838527L123.7820264423077,77.65416836926845L123.98815144230768,143.21539605403672L124.06743028846154,54.56186451501757L124.21013221153846,69.0096750604422L124.4955360576923,85.89938412352726L125.117875,145.1598888636699L125.29228846153846,116.91567548310121L125.30814423076923,56.951283335728796L125.75210576923077,36.444531576961865L125.81552884615385,90.34004996220968L125.84724038461539,73.85738114787148L126.03750961538461,76.50350829011238L126.41804807692307,106.12485133311974L126.6083173076923,115.77725751246422L126.73516346153846,89.53359744722992L126.83029807692307,148.53285735342033L127.00471153846154,93.29220425735191L127.13155769230768,80.26631858955429L127.16326923076923,52.34041117420116L127.25840384615385,61.84513587289571L127.7975,7.014353856579116L127.94020192307693,68.73127196679647L127.97191346153846,40.287187781990134L128.01948076923077,128.32386439890345L128.5110096153846,83.40012859091414L128.52686538461538,96.51123065984935L128.60614423076922,63.31071828887324L128.85983653846154,35.01780649954844L128.8756923076923,46.64149998907516L129.82703846153848,85.5187471285719L129.9221730769231,83.09128308209216L129.9697403846154,126.62423183005284L130.3819903846154,158.16476904152327L130.46126923076923,114.25595630623607L130.9845096153846,170.8061516785435L131.00036538461538,114.60798646074016L131.41261538461538,89.25059316569204L131.68216346153847,135.51682148272948L131.74558653846154,62.67973136560379L131.87243269230768,78.41480724544829L131.95567548076923,80.73213096027916L131.97153125,75.97848234134445L132.0666658653846,58.5051885172696L132.38378125,76.19871202343604L132.58990624999998,62.66061236839207L132.6850408653846,84.38541858292919L133.08143509615385,96.15457096746347L133.12900240384616,132.25323323153987L134.03278125,136.89589526201704L134.76214663461536,120.6198732784078L134.98412740384614,133.44933381586736L135.1109735576923,120.81587169046361L135.47565625000001,119.69647948846277L135.49151201923078,126.19879685939425L135.7769158653846,153.56595264047766L136.1891658653846,129.08369988041957L136.53799278846154,85.07214485570168L136.83925240384613,46.25331313442364L136.85510817307693,119.394249321833L137.29906971153844,66.06265531859631L137.42591586538464,84.33578555211636L137.4417716346154,120.94213351567164L137.67960817307693,128.38260792123222L137.88573317307694,106.19467353047384L137.9015889423077,139.39442715982574L138.29798317307691,69.78055266256028L138.64681009615384,101.83960302490851L138.74194471153845,133.28007798515299L138.78951201923076,111.61693077896402L138.86879086538463,121.13816086554455L138.94806971153847,69.70253600211359L139.0273485576923,89.2461934098384L139.7923894230769,74.48523467767352L139.83995673076922,45.47326112424055L140.0143701923077,78.14159545430296L140.23635096153848,81.81088519188621L140.55346634615387,84.85550117866373L140.7754471153846,88.54651808301033L140.85472596153846,84.35751956951263L141.5048125,112.14625277558557L141.56823557692306,116.9401342408583L142.04390865384613,77.4470157305396L142.25003365384615,170.02637797609702L142.51958173076923,119.91556519437246L142.66228365384615,172.94672086013728L142.9476875,91.10622552130538L143.0428221153846,95.70620691572942L143.18552403846152,63.3282203464117L143.8673221153846,106.15421090473494L144.05759134615386,141.93395503344306L144.08930288461536,112.53744798752257L144.20029326923077,111.8849137763771L144.7076778846154,126.49604616933948L144.77110096153845,95.88742099081333L145.26262980769232,118.10226619036442L145.3577644230769,86.04799687711075L145.64316826923078,71.82902217618296L145.7383028846154,47.69221038418717L146.18226442307693,112.17488258950341L146.21397596153847,123.13784350071668L146.5628028846154,151.50319501401395L146.5984783653846,77.02563467360945L146.7570360576923,117.41496364948125L146.93144951923077,93.40406369341129L147.31198798076923,125.96632134064957L147.4705456730769,162.04514982176246L147.97793028846155,105.3211042390821L148.0572091346154,101.20635184987248L148.1681995192308,32.03921046649706L148.34261298076922,81.98120560764328L148.43774759615386,43.146167502188376L148.80243028846155,159.48418694850363L148.86585336538462,53.11517036570574L149.57936298076925,82.40333467980076L149.6427860576923,91.3105634672324L149.78548798076923,75.85104465333241L149.88062259615384,71.95822910293083L149.95990144230768,76.4812092769339L150.21359375,73.87816086340949L150.64169951923077,136.47399726016764L150.89539182692306,41.05628380904842L151.03809375,75.19440460292638L151.14908413461538,54.88103617917238L151.22836298076922,39.65067920776879L151.9735841346154,77.36918465841181L152.03700721153845,61.543039250487205L152.5285360576923,27.027293614979623L152.71880528846154,54.713530499293896L153.13105528846154,106.59933722378776L153.17862259615384,114.65787890703038L153.28961298076922,136.4875893127864L153.33718028846155,155.0646336113314L153.41645913461537,163.27946465592476L153.47988221153847,90.260077698602L153.63843990384615,80.80423691446738L153.70186298076925,81.64892898248938L153.8287091346154,67.6662482237124L154.11807692307693,44.90770418171182L154.7364519230769,66.94050353195196L154.92672115384616,95.20684017357554L154.9584326923077,183.45329720160598L155.06942307692307,178.14170236621052L155.22798076923078,153.51069434962565L155.24383653846155,101.95915161500353L155.3072596153846,86.22291259865011L155.40239423076923,159.15930219452102L155.44996153846154,99.7011404625554L155.59266346153848,16.775602711763316L155.70365384615386,83.38867939689213L155.81464423076923,86.27101179951921L155.90977884615387,84.32930048968174L155.9256346153846,78.19836238191702L156.02076923076925,110.21698003427507L156.10004807692306,91.16897647173577L156.25860576923077,87.71918749157975L156.41716346153845,104.87656386168528L156.7501346153846,157.72270521729018L157.1148173076923,161.58899486252844L157.14652884615384,151.74424074543867L157.35265384615383,179.01056223753548L157.5746346153846,120.52819103036721L157.60634615384615,28.447976428929792L157.86003846153847,105.0867711156075L157.87589423076923,101.98649617984469L157.89175,130.5485366893202L158.65282692307693,55.23205103435723L158.79552884615384,113.55423531448197L158.93823076923076,69.96438737939572L159.09678846153844,54.78903441792561L159.52489423076923,119.72420625889005L159.65174038461538,61.860711223362266L159.746875,84.95614767076795L159.953,152.79430657679643L160.47624038461538,101.82892376891009L160.76164423076924,67.10060150704082L160.7775,126.54314807271226L160.8250673076923,119.26190000068644L161.0311923076923,124.91176501338867L161.0946153846154,97.14522140157288L161.2888485576923,120.37480891625879L161.30470432692306,78.21729890551256L161.41569471153846,114.40222410972508L161.79623317307693,118.28491579988962L161.82794471153846,83.76869923652487L162.06578125000001,85.99741896001257L162.08163701923075,95.79427008759772L162.36704086538464,129.76483256585345L162.62073317307693,116.92711461678992L162.7792908653846,113.44100289186841L163.01712740384616,130.51083475362276L163.1915408653846,138.0293109907008L163.39766586538462,111.08825729086868L163.6037908653846,91.24381840045405L163.8733389423077,121.72130232608522L163.98432932692307,77.68682356412693L164.30144471153844,63.94604347031592L164.46000240384615,116.7184924727307L164.65027163461536,14.044158007733579L164.66612740384616,-37.70305723338154L165.15765625,37.9868739425046L165.17351201923077,55.62543594595594L165.18936778846154,113.23260076269706L165.34792548076925,135.62510211997548L165.55405048076923,43.749484136655894L165.64918509615384,80.17403661507993L165.77603125,42.7732665440838L165.87116586538463,78.67151256694441L166.98106971153848,70.76975562530117L167.40917548076922,44.335685764502976L167.9007043269231,94.60002889517752L167.9799831730769,158.7523854965957L168.17025240384615,119.05179192616018L168.9828605769231,20.013640748104937L169.01457211538462,38.491266233666174L169.2841201923077,127.69148862822568L169.39511057692306,145.41133977677364L169.55366826923077,149.55583902333566L170.25132211538462,146.02674880788857L170.42573557692307,117.01843427249602L170.6794278846154,70.40582348651309L171.40879326923076,106.95947807189361L171.45636057692306,85.60915621315789L171.47221634615386,120.78176342938671L172.24914903846152,78.035124008911L172.39185096153847,113.29309559907573L172.56626442307692,120.91194047260366L173.0419375,129.50326950968415L173.13707211538463,118.31615727320415L173.15292788461537,110.70578681480924L173.2480625,116.50168072549235L173.9298605769231,105.74060400764276L174.19940865384615,126.71709047766971L174.56409134615384,133.99010090167053L174.72264903846155,101.27034374737497L174.88120673076924,91.59849506378629L175.07147596153845,98.98024694950892L175.19832211538463,108.74163393285966L175.43615865384615,63.70780770289459L175.7215625,114.94144778001774L176.0267860576923,128.55671829570284L176.18534375,151.92740998089087L176.21705528846155,68.03618093582608L177.20011298076923,64.6634471842517L177.35867067307694,27.71936710574169L177.46966105769232,36.14953545073426L177.54893990384616,52.42302538115594L177.80263221153845,109.22896037923717L177.91362259615383,101.57999908497307L177.92947836538463,159.0116735545604L178.11974759615384,97.6098823583609L178.21488221153845,84.76063594182682L178.8174014423077,57.37739681007693L179.34064182692308,152.151376911976L179.86388221153845,67.47437037902283L180.21270913461538,56.55834277498028L180.27613221153845,116.21940815176892L181.46531490384615,113.78232542004909L181.67143990384616,122.9045833263087L182.19468028846154,147.5196900286957L182.2105360576923,116.17004879937832L182.28981490384615,122.89051064113237L182.41666105769232,148.76261729960544L182.70206490384615,137.40654787533094L182.87647836538463,118.70936398324405L183.3402596153846,95.42920508729802L183.72079807692307,101.31498620283415L183.81593269230768,125.80910436828037L183.83178846153848,54.427635024347644L183.95863461538463,109.28411396081908L184.3708846153846,80.09511786889375L184.54529807692307,98.59735290839406L185.1478173076923,37.219890322732894L185.2112403846154,48.33815215871858L185.30637499999997,12.459087702767164L185.41736538461538,36.7498738178055L185.43322115384618,40.33724444093193L185.62349038461537,39.127765667239565L185.90889423076925,118.19837092566034L186.35285576923079,77.32127513357716L186.52726923076924,184.77051151777795L186.87609615384616,123.27769538018885L187.08222115384615,116.7895703469874L187.09807692307692,109.79032344543768L187.22492307692306,73.50714445613657L187.4151923076923,94.88605633052714L187.62131730769232,48.37912964235853L188.0969903846154,76.72050714589157L188.25554807692308,94.80187933533313L188.33482692307692,75.02979066780716L188.87392307692306,132.13752988533324L188.9532019230769,38.13556266374104L188.98491346153844,-21.653666751500726L189.11175961538464,31.384244763031507L189.15932692307692,84.97524953260567L189.19103846153845,145.4265529374166L189.25446153846156,109.22472794562164L189.58743269230771,83.90104790652248L189.61914423076922,83.10393673112046L189.82526923076924,89.63233221190737L190.18995192307693,83.04365683465033L190.2058076923077,116.3639009343761L190.66958894230768,140.14041088084466L190.89156971153847,184.8838928456295L191.0184158653846,149.0760207777836L191.54165625,64.04718515671024L192.04904086538463,122.19234779326189L192.79426201923076,143.4166070524534L192.88939663461537,77.57091400623075L193.15894471153848,139.80393633708272L193.52362740384615,117.10209081672251L193.74560817307693,86.88814299792996L193.8407427884615,107.92285755531982L193.93587740384615,178.7827739465636L193.98344471153848,105.5510602071459L194.1261466346154,70.47625096820268L194.28470432692308,138.2949279991507L194.3164158653846,98.38554866731947L194.80794471153845,79.2501390615849L194.83965625,135.31176639491912L194.9030793269231,129.5774107740179L195.10920432692305,127.8287604047962L195.23605048076925,143.18702179322926L195.28361778846153,147.9656255694072L195.34704086538463,150.12574758168935L195.60073317307692,95.24955213401248L195.74343509615386,147.89020748683882L195.83856971153847,63.21316866659786L195.9178485576923,109.93033429043116L196.40937740384615,104.6276313908337L196.42523317307692,38.92069642647887L196.5045120192308,69.82848282066213L196.77406009615385,68.05561726814112L196.99604086538463,71.7721957785956L197.0118966346154,115.63373847564866L197.23387740384615,119.78081112822282L197.2655889423077,159.2564332285359L197.34486778846153,105.4441641368449L197.63027163461538,88.53979306476047L197.90378365384618,108.2376081214043L198.1416201923077,115.25311689084272L198.45873557692306,79.75246405016362L198.61729326923077,89.42395365178042L198.7124278846154,155.4749657559986L198.79170673076922,140.2910475238804L198.91855288461537,28.570000648754082L199.85404326923077,131.32716717566808L200.1870144230769,146.04590988587563L200.37728365384615,135.4204291390925L200.48827403846153,108.43268249427707L200.55169711538463,54.5025897461162L201.04322596153847,62.37054628841079L201.43962019230767,77.6184909779486L201.4871875,93.89026518290902L201.61403365384615,127.41386787367846L201.86772596153847,124.08844017578684L202.01042788461538,112.25284582746698L202.50195673076925,162.25773970973407L202.5336682692308,135.30247792772295L202.59709134615383,126.01724647827062L202.69222596153847,65.45006863496167L202.7239375,57.17317655468963L202.73979326923077,138.03157464689608L203.1837548076923,164.766554504743L203.32645673076925,164.07345227571068L203.40573557692306,129.59850979029713L203.51672596153844,120.1641615427524L203.58014903846154,59.240235782172974L203.9606875,57.899493622812095L204.02411057692308,76.60587430542377L204.05582211538461,107.10996875918595L204.38879326923077,127.2984594345481L204.40464903846154,167.99787320122772L204.4205048076923,129.70742573746531L204.64248557692306,90.68236943161546L204.7376201923077,119.6449857511633L204.8327548076923,46.38601159567287L204.88032211538462,110.99248332116031L205.26482451923076,100.79246885323415L205.29653605769232,95.81327057133663L205.32824759615386,111.44492434466083L205.99418990384615,142.1272210756989L206.50157451923076,130.9709445016552L207.24679567307695,156.2988296779353L207.89688221153844,132.97668360942836L207.99201682692308,78.38016540366145L208.07129567307692,105.70176199611059L208.13471875,140.34999368827266L208.48354567307692,150.00961262231732L208.94336298076922,127.49618929050798L209.24462259615385,168.51347563139916L210.11668990384618,127.9174891528392L210.2593918269231,146.11663486788527L211.14731490384617,165.92418285952752L211.32172836538462,116.28720920972853L212.0035264423077,132.61703174549763L212.06694951923077,42.44939670575004L212.33649759615386,77.46661870528705L212.68928846153847,12.2833843933026L213.13325,99.89433765670742L213.19667307692308,95.62983416130639L213.2283846153846,108.72427913080928L213.27595192307692,98.16792590850596L213.52964423076924,60.685971920716256L213.73576923076922,38.73938689033189L213.8626153846154,39.24982747386396L213.92603846153844,79.41825236065863L213.95775,132.42800678916396L214.02117307692308,74.96096995289373L214.14801923076922,101.60196680868654L214.16387500000002,74.78894708557868L214.22729807692306,136.88963917560054L214.3224326923077,150.3390115432591L214.33828846153847,145.11536390072644L214.97251923076925,141.32945905816214L215.0359423076923,102.04804353921858L216.55809615384615,149.9207118581342L216.71665384615386,151.52278927910262L216.90692307692308,163.10005758395053L217.17647115384617,142.7302741788948L217.28746153846154,87.70678680599487L217.43016346153846,119.04273685271419L217.54115384615386,85.75715034712358L217.71556730769228,126.67437553637716L218.25466346153846,122.5791130031204L218.39736538461537,151.30357684276453L219.11087500000002,168.70593398590637L219.72925,110.5316595266855L219.95519471153847,57.8213411109065L220.20888701923076,104.1435048285633L220.79555048076924,87.82608224975954L221.20780048076924,116.34519133236547L221.3822139423077,114.54010475773322L221.85788701923076,77.34810838132633L222.00058894230767,148.58250983194392L222.01644471153847,152.5017200817333L222.3018485576923,104.11741737751962L222.42869471153847,115.45385429376228L222.71409855769232,130.37577869368084L222.90436778846154,160.22046713732777L222.96779086538461,139.357368671704L223.45931971153846,178.3978428422646L223.76057932692308,109.51658785490197L223.79229086538462,97.24410802921689L223.82400240384615,171.72895078477632L223.83985817307692,134.27401632602025L224.0459831730769,55.2441269709081L224.71192548076922,57.20681398383063L224.93390625,70.40644139533654L225.2510216346154,15.796155719868867L225.61570432692307,126.44770926769677L225.96453125,83.62851170941687L226.29750240384615,169.74956860526916L226.75731971153846,128.96711016097342L227.04272355769228,167.43369605491583L227.33209134615385,160.8473868177832L227.44308173076925,152.1408829676226L227.69677403846154,148.44098209470624L227.9346105769231,176.13342679425668L228.10902403846154,117.84288922158332L228.3310048076923,118.97701464084224L228.82253365384616,137.7948823452068L228.98109134615385,145.96383395192285L229.12379326923076,77.15692325027794L229.5360432692308,112.55356187165647L229.9958605769231,66.95013439358488L230.17027403846154,86.69306012472944L230.7093701923077,165.33236271916397L230.7569375,156.5882170492836L231.05819711538462,144.07371824596265L231.2326105769231,152.5651780815176L231.2801778846154,139.78408896191425L231.45459134615385,151.11340968246375L231.54972596153846,135.0999013255973L231.64486057692307,141.13365143978973L231.66071634615383,63.88169077400341L231.9461201923077,114.43671412472952L232.24737980769228,145.32459318306613L232.31080288461538,114.99243031004043L232.42179326923076,123.99471396319795L232.5169278846154,92.9764615943366L232.70719711538462,161.41011675919296L232.75476442307692,177.65502937618717L232.88161057692307,105.67512835155611L232.9767451923077,73.78130505264197L232.99260096153847,197.39600309928198L233.53169711538462,188.86785544967628L233.64268750000002,136.12605455141266L234.2134951923077,131.56360640082562L234.58214182692308,163.02289097118995" style="fill: none;" fill="none"></path></g></g></g></g><g opacity="0.2"><g><g><g><path stroke="rgb(51, 187, 238)" stroke-width="2px" d="M8.086442307692309,-8.492244356637773L8.324278846153847,113.99145840547281L8.340134615384615,162.03961657444015L8.46698076923077,116.73286079163664L8.752384615384615,-11.008306151814711L9.037788461538462,-90.32626241245299L9.370759615384616,43.24703712332997L9.402471153846154,23.06387376298667L9.830576923076924,79.17426044874594L9.87814423076923,112.6751203482505L9.941567307692308,134.6804226922919L10.068413461538462,94.39790245229379L10.369673076923078,99.7481558296946L10.559942307692307,-24.230927570932497L10.972192307692309,151.55369690906954L11.210028846153847,63.31184757433369L11.225884615384615,169.3840971565456L11.447865384615385,-20.759800296253477L11.638134615384615,-35.549148939060935L11.812548076923077,169.47208913185167L11.860115384615384,77.27269365565155L12.351644230769232,84.54679353595714L12.399211538461538,75.19887766098839L12.827317307692308,-273.498381480784L13.715240384615385,-106.80745237190268L13.921365384615385,3.895338690164546L14.254336538461539,35.19060390677772L14.270192307692309,25.773562978394377L14.412894230769231,19.099308869009885L14.65073076923077,-171.80876331261817L14.718117788461539,-54.954776183911555L14.876675480769231,54.451155468961254L14.955954326923077,42.43427846082489L14.971810096153845,11.356143826525706L15.431627403846154,-51.61558857802297L15.796310096153846,73.22680138164435L15.875588942307692,126.09874209734845L15.907300480769232,43.21020477069545L16.160992788461538,-51.7564787660725L16.256127403846154,151.91207183666992L16.700088942307694,39.775781064201176L16.76351201923077,128.97105387670453L16.795223557692307,56.80675183972347L17.318463942307694,95.76230930539315L17.445310096153843,-111.74318080160293L17.540444711538463,120.70924165887992L17.55630048076923,67.0182640387444L17.778281250000003,140.2862810063758L17.920983173076923,90.01881261061645L18.047829326923075,14.963267480162951L18.77719471153846,98.10090612878558L18.84061778846154,48.653859070292704L19.45899278846154,33.37384167385756L19.63340625,29.830530715081867L19.744396634615384,2.7579144297866622L19.83953125,-200.95023739126032L20.09322355769231,134.22629652628675L20.53718509615385,77.86764561748134L20.933579326923077,43.04085321924652L21.07628125,-91.58789927463505L21.393396634615385,123.15334514274728L22.285283653846154,150.51762601066147L23.1890625,148.71345245770644L23.268341346153846,87.21755765142154L23.442754807692307,76.34277333996727L23.553745192307694,100.20099415120204L23.61716826923077,168.77652431863825L23.648879807692307,65.42439549226549L23.79158173076923,34.235538427275635L24.092841346153847,28.91397178606135L24.330677884615387,12.751652124244767L24.4258125,176.80014969661133L24.758783653846155,163.18132291777292L24.933197115384615,153.81479768981225L24.964908653846155,53.941362224542566L25.186889423076924,31.603377450630095L25.297879807692308,101.15477178620641L25.599139423076924,46.99376312051903L25.614995192307692,162.90904039484448L25.80526442307692,36.081277161394276L25.963822115384612,6.290600671456243L25.995533653846156,60.13637720021655L26.122379807692305,95.67373780006311L26.66147596153846,-33.87243979526679L26.77246634615385,59.65469116196039L27.1054375,62.10082300091165L27.200572115384613,83.10122028338958L27.232283653846157,99.43112071047072L27.27985096153846,8.739887729426894L27.343274038461537,131.88515621001133L27.438408653846153,82.37780583291317L27.50183173076923,-177.92428608667092L27.581110576923077,-759.1814383122602L27.929937499999998,50.669689866446454L28.35804326923077,108.37623102266808L28.675158653846154,25.900158092519316L28.97641826923077,60.695913438359305L29.15083173076923,110.26813898202964L29.1666875,39.48009196752685L29.82073798076923,135.13123265871545L30.169564903846155,66.75815164631933L30.45496875,33.59824857758361L30.470824519230767,125.43376359095565L31.041632211538463,114.45170183284209L31.168478365384615,-1.073873696476174L31.29532451923077,57.874374928325445L31.34289182692308,108.40926423403435L31.89784375,53.22998912011975L31.945411057692308,145.11238167320843L32.16739182692307,54.376557076431375L32.214959134615384,-3.0953388123074075L32.29423798076923,62.03379069480582L32.484507211538464,111.14554743831978L32.65892067307693,29.312752834777395L33.15044951923077,-202.8571487390202L33.27729567307692,45.815192228439294L33.83224759615385,21.525994256045717L34.070084134615385,116.1161120616831L34.33963221153846,121.53246405792889L34.371343749999994,21.45561355424584L34.418911057692306,117.86741959800712L34.482334134615385,46.623346846865054L35.49710336538462,59.486015728872765L35.528814903846154,67.35538953213256L35.719084134615386,33.40204546835742L35.76665144230769,48.07835356037834L36.638718749999995,118.79911069987575L36.706105769230774,141.84953104992164L36.848807692307695,11.136051201866987L36.95979807692307,-99.69777803784228L37.467182692307695,73.01054009436632L37.51475,30.52107293475422L37.609884615384615,89.9400931156939L37.62574038461539,90.05329464704265L37.86357692307693,208.95781998111633L38.05384615384616,31.097898485278737L38.11726923076923,105.3924241059227L38.19654807692307,110.91360664428213L38.228259615384616,52.742314604949236L38.434384615384616,-155.2869418592657L38.450240384615384,-17.539673914178227L38.73564423076923,83.23663713232384L40.178519230769226,140.95332006396492L40.32122115384615,63.052636673057016L40.47977884615385,79.86885937858608L40.654192307692306,148.71013625812483L40.89202884615384,134.67646257046144L40.95545192307692,51.74626347430752L41.27256730769231,-112.09263740605667L42.14463461538462,-363.9722263106143L42.382471153846154,57.37746012888386L42.47760576923076,77.69958191053013L42.858144230769234,-29.402846681512845L44.13056971153846,-7.905180442356457L44.49525240384616,107.5999827516731L44.76480048076923,38.505708820559114L45.31975240384615,77.49056474855172L45.985694711538464,104.2415096744313L46.064973557692305,-5.559436082001728L46.27109855769231,37.146131384326175L46.397944711538464,57.521119182603464L46.44551201923077,143.47865433952538L46.76262740384615,55.86137739006666L46.96875240384615,83.28798993167004L47.04803125,-9.620074175507714L47.27001201923077,129.75744392311898L47.301723557692306,-76.61477522200434L47.47613701923077,91.52758683190915L48.22135817307692,98.73294801214944L48.23721394230769,120.9535457600956L48.57018509615385,-174.74865473199162L49.014146634615386,44.33771262844096L49.14099278846154,73.8105812924565L49.26783894230769,14.469250330841216L49.695944711538466,-5.70798894481263L49.75936778846154,161.88423813579138L49.87035817307692,94.7883769039996L49.91792548076923,113.94773608477554L50.06062740384615,-921.101611871598L50.29846394230769,52.45016708064362L50.37774278846153,40.577850617375255L50.44116586538462,56.712642603053276L50.631435096153844,16.295285044144887L50.71071394230769,20.57891341242944L50.78999278846154,123.83403535201215L50.80584855769231,64.87380977338182L51.01197355769231,79.38066972561649L51.027829326923076,115.56478583221325L51.04368509615385,151.6141934043495L51.20224278846154,87.6943498805864L51.249810096153844,41.98797595014333L51.412331730769225,-1.5071045855059748L51.523322115384616,123.11042772486108L51.951427884615384,-35.59692796992599L52.300254807692305,53.29682824955092L52.4588125,5.378227237053263L52.72836057692307,81.26903611260934L52.74421634615385,71.39703191929732L53.679706730769226,101.18007793058642L54.171235576923074,38.17138438895348L54.218802884615386,16.58176605266058L54.32979326923077,146.6486835706397L54.37736057692308,156.4037514835596L54.50420673076923,129.81909947844687L55.23357211538461,181.81897629252634L55.471408653846154,71.86332821580584L55.677533653846154,184.30969974721083L56.24834134615385,160.90798761430196L56.26419711538461,75.77068061797183L56.565456730769235,144.57734667663462L56.581312499999996,149.74057283685542L56.59716826923077,124.97371334026103L56.81914903846154,27.287231008778374L56.83500480769231,59.384372601890966L56.850860576923075,77.9496813119855L56.96185096153847,128.48656677666585L57.23139903846154,103.12556022105274L57.675360576923076,67.03204397486991L57.97662019230769,180.52086123494664L58.087610576923076,9.756190214795108L58.166889423076924,16.077124186232734L58.373014423076924,121.58661791905762L58.42058173076923,143.41281328957993L58.56328365384615,100.55579531032127L58.75751682692307,83.50473416063471L59.13805528846154,127.95603923583404L59.18562259615385,135.7038727146224L59.78814182692307,98.87873200929026L60.32723798076923,79.24953495963712L60.580930288461545,36.299116058182L60.866334134615386,81.3815615255968L61.04074759615385,32.652584362914816L61.16759375,116.37145942946664L61.34200721153846,134.3902391308453L61.563987980769234,150.92976844604127L62.245786057692314,89.07012196137804L62.594612980769234,77.16567377789181L62.610468749999995,181.77502859904197L62.72145913461539,81.12093399537264L62.75317067307692,72.44723691106776L62.86416105769231,82.80128129987281L63.27641105769231,147.38867901902412L63.910641826923076,150.2030699920957L63.95820913461538,87.78652735051003L64.06919951923076,194.22040366767905L64.25946875,79.30970949379264L64.44973798076923,190.80674645371036L64.65586298076923,99.42316827069736L64.67171875,142.58611371038714L64.70343028846155,58.2268579673488L64.9254110576923,178.59356974801048L65.30594951923077,84.92735158503058L65.35351682692308,134.0218512122752L65.3852283653846,98.42222333096434L65.41693990384616,9.52701828642753L65.46450721153846,111.13772378299619L65.52793028846153,124.97191035796423L65.57549759615385,92.29842615601375L65.87675721153846,125.53598624796142L66.22954807692308,147.1048058956163L66.30882692307692,2.4054313907633076L66.80035576923078,68.12165700827029L66.89549038461539,75.82969609207942L67.00648076923076,76.43366296539318L67.03819230769231,0.5147468836745719L67.33945192307692,101.9033957927255L67.46629807692308,178.57914588963612L68.38593269230769,36.09866306211337L68.41764423076924,95.34176368466579L68.57620192307692,32.291859119106114L68.71890384615385,82.87156541333536L69.24214423076923,146.54134173175552L69.38484615384615,27.83604594147769L69.44826923076924,36.90124775308653L69.54340384615384,54.77952361976498L69.73367307692308,102.08948932264467L69.78124038461537,123.13673194872682L70.25691346153846,107.30155698544114L70.39961538461539,76.49641318854412L70.49475,133.04411966961342L70.98627884615384,148.6298391536926L71.01799038461539,90.79415939046304L71.1606923076923,21.89560562688862L71.33510576923076,43.57678970696873L71.43024038461539,124.80751700783149L71.54123076923076,96.82957823675825L72.12789423076923,15.849819632386836L72.52428846153846,22.749704097770202L72.61942307692308,89.41999711529353L72.71455769230768,151.69465148934395L72.762125,107.44309109573952L73.11095192307693,129.51272127244155L73.66986778846154,75.12395730733408L73.84428125000001,-28.835422395821613L74.39923317307692,160.68647836069576L74.74806009615384,66.35798616476825L74.79562740384615,104.99476992114215L74.87490625000001,51.30266543707115L75.84210817307692,56.091354221245304L75.92138701923078,86.93677535480822L76.00066586538462,119.4681137203239L76.09580048076923,78.41015011214188L77.06300240384616,112.854839047906L77.49110817307692,79.48115379255034L77.69723317307692,14.522180739697117L77.82407932692308,3.904031640524092L77.99849278846153,97.5238874015864L78.18876201923077,54.540113327640604L78.55344471153846,178.20641149588627L79.12425240384616,100.27607548541856L79.28281009615384,116.93859395014589L79.34623317307691,100.72769035465318L79.74262740384616,168.65900850822217L79.80605048076923,46.489507607440494L79.90118509615385,108.7399827010464L80.45613701923078,122.23446809363087L80.50370432692308,82.45642873949839L81.09433173076923,40.236958178831294L81.25288942307692,24.60149570102808L81.55414903846153,160.04580791919724L81.68099519230769,177.17088793138973L81.74441826923078,134.97756061402615L81.7761298076923,170.41376102857757L81.87126442307692,-46.77297130550719L82.01396634615384,64.98961918983844L82.15666826923078,143.8286260817782L82.37864903846155,98.69350777440705L82.48963942307692,69.53487316783287L82.83846634615385,115.18635272656103L82.94945673076924,118.74321824867512L83.04459134615384,160.30585591939743L83.10801442307692,90.09083531415091L83.12387019230769,70.21501604318621L83.59954326923076,76.15922330293108L83.96422596153846,134.2342489660601L83.9959375,118.29517714792165L84.04350480769232,102.95147584107472L84.05936057692308,147.72693137634778L84.18620673076923,97.86719454856357L84.78872596153846,109.25769618912601L84.99485096153846,60.42945841178301L85.2326875,18.811926369345795L85.53394711538462,8.223462085844996L85.5973701923077,79.98318777387033L85.70836057692308,106.18876275108197L85.8510625,35.829439169866994L86.34259134615385,166.20959266580175L86.51700480769232,60.47994191609326L87.02438942307691,128.63344544162973L87.40492788461539,163.32382291144458L87.7061875,11.541400257521357L87.9123125,1.743865672289441L87.92816826923077,13.822301647416364L88.05897836538462,36.39377262876372L88.09068990384615,144.48542677561053L88.75663221153846,135.53851348111638L88.82005528846153,66.91813412904742L88.8834783653846,161.54456914952024L89.05789182692307,117.72527376157232L89.07374759615385,25.77510839179163L89.10545913461539,-92.35828785316545L89.12131490384614,50.77774001980436L89.62869951923076,193.09260604492155L89.80311298076923,168.256363926013L89.83482451923076,124.2603762729792L89.9141033653846,127.71147756571882L89.94581490384616,75.36819701632487L90.12022836538462,84.43339882793373L90.23121875,47.69071236656749L90.43734375,85.67536386541326L90.67518028846155,120.7589202603791L90.81788221153846,110.51266845603242L90.86544951923076,4.871911172778393L91.34112259615384,84.00911845816302L91.70580528846153,4.708354921569164L91.72166105769232,62.24525476132988L91.76922836538462,162.10053161918185L91.80093990384616,58.856485142279446L91.86436298076923,73.9800616283552L91.95949759615385,48.89165955679494L92.40345913461539,141.77329065565718L92.53030528846155,141.6110544450581L92.89498798076923,29.164908286440234L93.05354567307693,132.31400842774892L93.71948798076924,140.39632731870515L93.86218990384616,123.40772662715754L93.94146875,133.62461557695642L94.65497836538462,78.52199940676803L94.73425721153846,-19.11135933918408L94.92452644230768,79.8776811133954L95.30902884615385,108.2320568311494L95.65785576923078,65.82836011508482L96.24451923076923,62.08028188117317L97.24343269230769,178.72943734251893L98.13135576923077,147.88929637139663L98.24234615384616,45.28282950919823L98.67045192307693,114.37707124419977L98.68630769230768,14.729008566029417L99.05099038461539,113.76920864128043L99.17783653846153,100.54040556857363L99.85963461538462,84.19501881140752L100.39873076923077,119.71151633039118L100.60485576923077,154.80212367398198L100.65242307692309,99.82101563215257L101.69890384615385,97.46670710588806L101.82575,107.65497371172533L101.95259615384614,132.03921460804995L102.22214423076923,54.57839450533505L102.36484615384614,149.15740465217968L102.47583653846154,106.47273246282712L102.57097115384616,110.28607221666026L102.67006971153846,79.69960441547448L103.24087740384616,132.6608571470948L103.3677235576923,7.566983353137086L103.76411778846153,20.55991770608821L103.77997355769232,62.14837665898961L104.28735817307691,87.670106207917L104.31906971153846,94.02120793671348L104.63618509615384,158.85870505732018L104.7154639423077,252.08882687726287L104.74717548076923,130.9672450442682L104.77888701923077,40.66671188771728L105.19113701923077,117.66770711252467L105.77780048076923,34.64500858532268L106.09491586538462,46.436834767484136L106.38031971153846,47.126411103783205L106.95112740384616,45.98557405548639L106.9828389423077,65.36599174429432L107.09382932692307,-32.89902253167234L107.23653125,114.73406173896511L107.28409855769232,130.0911566285882L107.79148317307691,55.799560854176555L107.82319471153846,39.23218190171759L108.02931971153846,79.40050253088123L108.20373317307693,45.46026228487029L108.2195889423077,208.99255958644207L108.29886778846154,60.70927482502305L108.37814663461539,20.84086098326375L108.96481009615385,75.09011919315674L109.2502139423077,130.647859608836L109.5514735576923,22.269531276798855L109.80516586538461,86.5596944858786L110.03111057692308,117.24355552720372L110.31651442307692,117.12124249603367L110.36408173076923,52.69118717839013L110.90317788461539,172.71993636674014L110.95074519230769,141.24208699646405L111.0934471153846,49.11957583677725L111.18858173076923,102.8215001351433L111.26786057692307,85.984317760414L111.47398557692307,124.47776442419273L111.55326442307691,101.13664537490114L111.80695673076923,44.41298713933214L111.88623557692307,103.59916503508576L111.96551442307693,135.8293087686994L112.02893750000001,164.49859466225607L112.2826298076923,150.08040280368877L112.82172596153846,14.13376683918764L113.20226442307693,110.23037294213428L113.86820673076923,76.45713393136396L113.94748557692307,120.45273523104844L114.10604326923077,103.16957230676199L114.16946634615385,86.66207812344658L114.42315865384614,118.07173612756888L114.59757211538461,50.0329795467784L114.97811057692307,141.7589311895077L115.24765865384616,149.96414264165796L115.54891826923077,84.79325477670648L115.88188942307693,127.1500095608295L115.91360096153846,173.2138247316121L116.00873557692307,117.27121198779206L116.1514375,35.0376723726746L116.4051298076923,65.68518400305186L117.02350480769232,112.03696120352252L117.05521634615384,132.9813050542376L117.10278365384616,185.25958165260963L117.28116105769232,138.27444252816494L117.39215144230768,131.02796691233524L117.99467067307693,158.79399087131023L118.24836298076923,-8.302158508775708L118.32764182692308,181.2702257520519L118.3593533653846,172.8362287248834L118.67646875,70.31260246000022L118.85088221153846,75.59939729977634L119.08871875,94.77646434239578L119.2472764423077,112.21613256926649L120.24618990384616,77.48982423796554L120.29375721153846,210.1702933795983L120.38889182692309,169.98342778966762L120.9914110576923,91.53853351013969L121.19753605769232,-5.9423122511710496L121.21339182692307,136.09225441901944L121.24510336538462,-9.557356148469214L121.34023798076923,78.42399444049227L121.38780528846154,73.51733910032783L121.67320913461539,144.7244507143856L121.95861298076923,92.22984843651066L122.3391514423077,86.39539772408318L122.40257451923077,81.78105088878658L122.59284375,107.10950717472006L122.73554567307691,73.76515257779977L123.27464182692307,145.2155058213626L123.68689182692307,109.44874792036136L123.75031490384615,151.2903005131753L123.7820264423077,43.733391597890325L123.98815144230768,180.09358662671875L124.06743028846154,4.694253024319234L124.21013221153846,77.13656849224355L124.4955360576923,95.39984547151253L125.117875,178.49392278000013L125.29228846153846,101.02830545653124L125.30814423076923,23.221312752831775L125.75210576923077,24.90948371265554L125.81552884615385,120.65627905391158L125.84724038461539,64.5858799398062L126.03750961538461,77.99195480762285L126.41804807692307,122.78685679481133L126.6083173076923,121.20673598834547L126.73516346153846,74.77153866053561L126.83029807692307,181.7199410506524L127.00471153846154,62.21933689081346L127.13155769230768,72.93925790141805L127.16326923076923,36.63208825306504L127.25840384615385,67.19154351591135L127.7975,-23.827961027598892L127.94020192307693,103.44703840379371L127.97191346153846,24.2873904280365L128.01948076923077,177.8444949959172L128.5110096153846,58.130527198920056L128.52686538461538,103.88622557362542L128.60614423076922,44.63543008019918L128.85983653846154,19.103043618053245L128.8756923076923,53.179827576933924L129.82703846153848,107.38719864453888L129.9221730769231,81.72583455594724L129.9697403846154,151.11151550078065L130.3819903846154,175.90632122297538L130.46126923076923,89.55724914263702L130.9845096153846,202.61563657546648L131.00036538461538,82.99651852572572L131.41261538461538,74.98705943722746L131.68216346153847,161.54157491106307L131.74558653846154,21.708868174720603L131.87243269230768,87.2657874278608L131.95567548076923,82.0356255498715L131.97153125,73.30455499319362L132.0666658653846,48.67646074122752L132.38378125,86.1513189956546L132.58990624999998,55.04543131242975L132.6850408653846,96.6056220786064L133.08143509615385,102.77471918376396L133.12900240384616,152.5587307550828L134.03278125,139.5073926541605L134.76214663461536,111.46461091262755L134.98412740384614,140.6659053681884L135.1109735576923,113.70954924492399L135.47565625000001,119.06682137483732L135.49151201923078,129.85635038054315L135.7769158653846,168.9599777673371L136.1891658653846,115.31243270288688L136.53799278846154,60.31564515429785L136.83925240384613,24.417720291204798L136.85510817307693,160.53602592725073L137.29906971153844,36.06363369177564L137.42591586538464,94.61442130847136L137.4417716346154,141.5332042451715L137.67960817307693,132.5678747743601L137.88573317307694,93.7139604356722L137.9015889423077,158.0692885763361L138.29798317307691,30.62274825784846L138.64681009615384,119.87281885372941L138.74194471153845,150.96534515029052L138.78951201923076,99.4314104754827L138.86879086538463,126.49385278924602L138.94806971153847,40.769997016433656L139.0273485576923,100.23950070168358L139.7923894230769,66.18219539083077L139.83995673076922,29.15402600043458L140.0143701923077,96.517533514963L140.23635096153848,83.8748606692767L140.55346634615387,86.56809767122616L140.7754471153846,90.62271509170533L140.85472596153846,82.00120790567019L141.5048125,127.7774152040016L141.56823557692306,119.6366925650742L142.04390865384613,55.23213656848532L142.25003365384615,222.10226923922306L142.51958173076923,91.72823300465244L142.66228365384615,202.77674592213006L142.9476875,45.070946893212415L143.0428221153846,98.29369645009284L143.18552403846152,45.115602901170526L143.8673221153846,130.24383059379178L144.05759134615386,162.0600611058413L144.08930288461536,96.00191277419218L144.20029326923077,111.51786328260788L144.7076778846154,134.71480814038077L144.77110096153845,78.67006932789229L145.26262980769232,130.59811661511193L145.3577644230769,68.01747038840551L145.64316826923078,63.83084890691101L145.7383028846154,34.11525375118948L146.18226442307693,148.44638570499373L146.21397596153847,129.3045090132742L146.5628028846154,167.45870524024357L146.5984783653846,35.13200698213189L146.7570360576923,140.13396119840908L146.93144951923077,79.8979324681219L147.31198798076923,144.28259126722114L147.4705456730769,182.33949084238847L147.97793028846155,73.41382859882435L148.0572091346154,98.89180363094202L148.1681995192308,-6.867306561651592L148.34261298076922,110.07357787453803L148.43774759615386,21.301458567869897L148.80243028846155,224.924322887056L148.86585336538462,-6.717401462118094L149.57936298076925,98.87792710647919L149.6427860576923,96.32087966016262L149.78548798076923,67.1550653205137L149.88062259615384,69.76852035582999L149.95990144230768,79.02538562481061L150.21359375,72.41394613080195L150.64169951923077,171.68415523334406L150.89539182692306,-12.616180007206228L151.03809375,94.39709754948272L151.14908413461538,43.454766440810666L151.22836298076922,31.08360341135415L151.9735841346154,98.58584397439846L152.03700721153845,52.64083245852965L152.5285360576923,7.612186695006724L152.71880528846154,70.28703874672067L153.13105528846154,135.7851035063155L153.17862259615384,119.19080860385439L153.28961298076922,148.7668014160241L153.33718028846155,165.51422102926298L153.41645913461537,167.9003071185085L153.47988221153847,49.18667253510797L153.63843990384615,75.48532647339164L153.70186298076925,82.12406827075176L153.8287091346154,59.8009902969003L154.11807692307693,32.106023158086494L154.7364519230769,79.33395316646204L154.92672115384616,111.10665453448892L154.9584326923077,233.0919292798731L155.06942307692307,175.15393027130048L155.22798076923078,139.65575234029674L155.24383653846155,72.96140882677867L155.3072596153846,77.37127815195129L155.40239423076923,200.18602134219836L155.44996153846154,66.2559244883247L155.59266346153848,-29.870012273057316L155.70365384615386,120.858535032277L155.81464423076923,87.89232377599694L155.90977884615387,83.23708787789803L155.9256346153846,74.74970969629942L156.02076923076925,128.2274524637265L156.10004807692306,80.45447446780747L156.25860576923077,85.77868119024208L156.41716346153845,114.52758806986968L156.7501346153846,187.44865972981788L157.1148173076923,163.76378278797492L157.14652884615384,146.2065665545757L157.35265384615383,194.34786807683994L157.5746346153846,87.631857226335L157.60634615384615,-23.34714428437869L157.86003846153847,148.1960931268637L157.87589423076923,100.24259152847809L157.89175,146.61468447590013L158.65282692307693,12.866527853440541L158.79552884615384,146.3604639720521L158.93823076923076,45.44509791590975L159.09678846153844,46.25289837709864L159.52489423076923,156.25024041943252L159.65174038461538,29.312495265877853L159.746875,97.94733067243361L159.953,190.95327096143737L160.47624038461538,73.16089593947402L160.76164423076924,47.565920234739345L160.7775,159.97958051590248L160.8250673076923,115.16619796017186L161.0311923076923,128.0898140830337L161.0946153846154,81.52654061992655L161.2888485576923,133.44145189326954L161.30470432692306,54.50369952446784L161.41569471153846,134.7562445370946L161.79623317307693,120.46892987560715L161.82794471153846,64.35332741963214L162.06578125000001,87.25107380447446L162.08163701923075,101.30499884686434L162.36704086538464,148.8732739598723L162.62073317307693,109.7058982704417L162.7792908653846,111.48006504660007L163.01712740384616,140.11261517585953L163.1915408653846,142.25845387405715L163.39766586538462,95.93391458471307L163.6037908653846,80.08132152459586L163.8733389423077,138.86488703425275L163.98432932692307,52.91742926052542L164.30144471153844,56.21685466754719L164.46000240384615,146.40299503658898L164.65027163461536,-43.710155128827274L164.66612740384616,-66.81086580650876L165.15765625,80.5624602289405L165.17351201923077,65.5471270728973L165.18936778846154,145.63663097211392L165.34792548076925,148.22088413344463L165.55405048076923,-7.930550978961353L165.64918509615384,100.66284738419346L165.77603125,21.735333379148553L165.87116586538463,98.86427595480346L166.98106971153848,66.32501734562686L167.40917548076922,29.466521467804025L167.9007043269231,122.8737219061819L167.9799831730769,194.83808608489343L168.17025240384615,96.72020804279019L168.9828605769231,-35.69531928955107L169.01457211538462,48.884930569294404L169.2841201923077,177.86661372516537L169.39511057692306,155.37875604783184L169.55366826923077,151.88711984952678L170.25132211538462,144.0416355616995L170.42573557692307,100.70125734633767L170.6794278846154,44.18622991939777L171.40879326923076,127.52090877617012L171.45636057692306,73.59960016761909L171.47221634615386,140.56635498851537L172.24914903846152,53.99013933489335L172.39185096153847,133.12570461854338L172.56626442307692,125.19754071396311L173.0419375,134.3358920930419L173.13707211538463,112.02340664018412L173.15292788461537,106.42495343196207L173.2480625,119.76187105025166L173.9298605769231,99.68749835385243L174.19940865384615,138.51636411705985L174.56409134615384,138.08116926517104L174.72264903846155,82.86548034808368L174.88120673076924,86.15808017926759L175.07147596153845,103.13248238522793L175.19832211538463,114.23241411099444L175.43615865384615,38.37628044853921L175.7215625,143.76037032339954L176.0267860576923,136.21530796077568L176.18534375,165.07342405380913L176.21705528846155,20.847364597977187L177.20011298076923,62.766284448991094L177.35867067307694,6.938322061579722L177.46966105769232,40.89150514479264L177.54893990384616,61.57686346701815L177.80263221153845,141.18229881565784L177.91362259615383,97.27745835694951L177.92947836538463,191.31699044370325L178.11974759615384,63.0713748104987L178.21488221153845,77.5329348325264L178.8174014423077,41.9743247984676L179.34064182692308,205.46174071929417L179.86388221153845,19.843554204236764L180.21270913461538,50.41807724770627L180.27613221153845,149.77875742621254L181.46531490384615,112.41146638345673L181.67143990384616,128.03585339857963L182.19468028846154,161.36568754878826L182.2105360576923,98.53587560788729L182.28981490384615,126.670770427119L182.41666105769232,163.31567729499656L182.70206490384615,131.01875882417662L182.87647836538463,108.19219804394525L183.3402596153846,82.33411570832834L183.72079807692307,104.62573808032322L183.81593269230768,139.5870458363439L183.83178846153848,14.275558518385562L183.95863461538463,140.14088336258428L184.3708846153846,63.67630756718575L184.54529807692307,109.004860118113L185.1478173076923,2.6950676182983915L185.2112403846154,54.59217444146055L185.30637499999997,-7.72288605370554L185.41736538461538,50.413441007514514L185.43322115384618,42.355140416440584L185.62349038461537,38.447433857037716L185.90889423076925,162.67558638352202L186.35285576923079,54.32790875053036L186.52726923076924,245.21070698389082L186.87609615384616,88.6879863027949L187.08222115384615,113.14000001581154L187.09807692307692,105.85324706331595L187.22492307692306,53.09785627465465L187.4151923076923,106.91169425987174L187.62131730769232,22.21898338026372L188.0969903846154,92.66253199162894L188.25554807692308,104.97265119189397L188.33482692307692,63.907990792323865L188.87392307692306,164.26063319519162L188.9532019230769,-14.740543898404528L188.98491346153844,-55.28510829757429L189.11175961538464,61.218069989956014L189.15932692307692,115.12018971549115L189.19103846153845,179.43041110262274L189.25446153846156,88.86120138773695L189.58743269230771,69.65647788452918L189.61914423076922,82.65556169495687L189.82526923076924,93.30455466985005L190.18995192307693,79.33752693494318L190.2058076923077,135.10653824047185L190.66958894230768,153.51469772573327L190.89156971153847,210.0521014508209L191.0184158653846,128.93409273962024L191.54165625,16.218465119856457L192.04904086538463,154.89900177632225L192.79426201923076,155.35525288574863L192.88939663461537,40.5327116677305L193.15894471153848,174.8100113981869L193.52362740384615,104.33230271151989L193.74560817307693,69.89279734985905L193.8407427884615,119.75488449385158L193.93587740384615,218.64147691663817L193.98344471153848,64.35822122872344L194.1261466346154,50.7466707712971L194.28470432692308,176.4429338290589L194.3164158653846,75.9365227931645L194.80794471153845,68.48647115835922L194.83965625,166.84643176991958L194.9030793269231,126.351835737261L195.10920432692305,126.84514457210899L195.23605048076925,151.82604382422286L195.28361778846153,150.65359019350726L195.34704086538463,151.340816213598L195.60073317307692,64.38169219469421L195.74343509615386,177.5005761228036L195.83856971153847,15.582334330212372L195.9178485576923,136.20873995383735L196.40937740384615,101.64486100981013L196.42523317307692,1.960545509029227L196.5045120192308,87.21411266739017L196.77406009615385,67.05838039484809L196.99604086538463,73.86277119072622L197.0118966346154,140.305856242741L197.23387740384615,122.11353949529585L197.2655889423077,181.46147065996192L197.34486778846153,75.17476277276876L197.63027163461538,79.03108433671298L197.90378365384618,119.31762909076643L198.1416201923077,119.19934057365172L198.45873557692306,59.78334682728167L198.61729326923077,94.86416655268987L198.7124278846154,192.62866006462136L198.79170673076922,131.75009351831395L198.91855288461537,-34.27308821850452L199.85404326923077,189.1280733470572L200.1870144230769,154.32520266036735L200.37728365384615,129.44359621902694L200.48827403846153,93.25207500656835L200.55169711538463,24.166912575275685L201.04322596153847,66.79627184345156L201.43962019230767,86.19545986581363L201.4871875,103.04313817319927L201.61403365384615,146.27089438723632L201.86772596153847,122.21788709572284L202.01042788461538,105.59532400653698L202.50195673076925,190.38549251850927L202.5336682692308,120.14014317534166L202.59709134615383,120.7943037879537L202.69222596153847,31.381031098100383L202.7239375,52.517424759536546L202.73979326923077,183.51442357376217L203.1837548076923,179.80498067478183L203.32645673076925,163.68358227188L203.40573557692306,110.20635464225198L203.51672596153844,114.85734065350844L203.58014903846154,24.970527541847016L203.9606875,57.14532615817155L204.02411057692308,87.12821343939288L204.05582211538461,124.26852188942722L204.38879326923077,138.6544854394393L204.40464903846154,190.89129344498505L204.4205048076923,108.16904903909891L204.64248557692306,68.7307752595749L204.7376201923077,135.93645743090892L204.8327548076923,5.1778386332095145L204.88032211538462,147.333623666747L205.26482451923076,95.05496071502567L205.29653605769232,93.01247153776931L205.32824759615386,120.23772959215567L205.99418990384615,159.38601298690773L206.50157451923076,124.69553892875557L207.24679567307695,170.5457650895929L207.89688221153844,119.8579764458933L207.99201682692308,47.66962391291748L208.07129567307692,121.07016007936328L208.13471875,159.8396240151138L208.48354567307692,155.44314827271737L208.94336298076922,114.8323886663653L209.24462259615385,191.58569919815054L210.11668990384618,105.08224675864913L210.2593918269231,156.35365433259867L211.14731490384617,177.06592860482633L211.32172836538462,88.36641153171661L212.0035264423077,141.80255692186765L212.06694951923077,-8.269898004108061L212.33649759615386,97.16380608002656L212.68928846153847,-24.38218490718859L213.13325,149.1754988673725L213.19667307692308,93.23105094514322L213.2283846153846,116.08990442615469L213.27595192307692,92.22997722096044L213.52964423076924,39.60237280258446L213.73576923076922,26.394432810740593L213.8626153846154,39.53695030210077L213.92603846153844,102.01299135948067L213.95775,162.24599365519825L214.02117307692308,42.635761732491694L214.14801923076922,116.58752754007001L214.16387500000002,59.70662349133057L214.22729807692306,171.82127847623778L214.3224326923077,157.90428350006695L214.33828846153847,142.17706210180185L214.97251923076925,139.19988758421968L215.0359423076923,79.95224730981283L216.55809615384615,176.84908778752433L216.71665384615386,152.4239578283974L216.90692307692308,169.61227100542746L217.17647115384617,131.27227101355092L217.28746153846154,56.75607515873856L217.43016346153846,136.66920875399373L217.54115384615386,67.03400793772892L217.71556730769228,149.69031470533227L218.25466346153846,120.27552782816348L218.39736538461537,167.46108775256434L219.11087500000002,178.49475987892365L219.72925,77.80863014337376L219.95519471153847,28.171787002030808L220.20888701923076,130.1997219197452L220.79555048076924,78.64753204918236L221.20780048076924,132.3871901913313L221.3822139423077,113.52474355950254L221.85788701923076,56.42761041959751L222.00058894230767,188.65186064791632L222.01644471153847,154.70627584723988L222.3018485576923,76.90124710639941L222.42869471153847,121.83060005914886L222.71409855769232,138.76936116863507L222.90436778846154,177.00810438687913L222.96779086538461,127.62187578479062L223.45931971153846,200.35810956320492L223.76057932692308,70.77088192451049L223.79229086538462,90.34083812726895L223.82400240384615,213.62667483477853L223.83985817307692,113.20561569296989L224.0459831730769,10.789814208657528L224.71192548076922,58.31082542859952L224.93390625,77.83123181430858L225.2510216346154,-14.922129972581704L225.61570432692307,188.68920813834993L225.96453125,59.54271308288447L226.29750240384615,218.19266310918607L226.75731971153846,106.02697728605709L227.04272355769228,189.0711506202584L227.33209134615385,157.1425878718961L227.44308173076925,147.24347455190727L227.69677403846154,146.3597878536908L227.9346105769231,191.7104269377538L228.10902403846154,85.0544618369546L228.3310048076923,119.61496018917533L228.82253365384616,148.37993292891187L228.98109134615385,150.55886923070065L229.12379326923076,38.453035980602756L229.5360432692308,132.46417109618196L229.9958605769231,41.298206437169604L230.17027403846154,97.79845584849828L230.7093701923077,209.56697042853338L230.7569375,151.66963510997593L231.05819711538462,137.03431266909465L231.2326105769231,157.34162423901725L231.2801778846154,132.59472633213736L231.45459134615385,157.4861525877728L231.54972596153846,126.0923028748599L231.64486057692307,144.527635879023L231.66071634615383,20.42746289949869L231.9461201923077,142.87391475951299L232.24737980769228,162.69902515338035L232.31080288461538,97.93058869396337L232.42179326923076,129.05849851809907L232.5169278846154,75.52869463685204L232.70719711538462,199.90404778942465L232.75476442307692,186.79279272324638L232.88161057692307,65.18643402520104L232.9767451923077,55.84102944700283L232.99260096153847,266.929270750517L233.53169711538462,184.0707723967731L233.64268750000002,106.45879154613941L234.2134951923077,128.9972293161205L234.58214182692308,180.71873854201985" style="fill: none;" fill="none"></path></g></g></g></g></g></g><g transform="translate(72, 177)" clip-path="url(#clip_1)"><clipPath id="clip_1"><rect width="257" height="23"></rect></clipPath><g><g><line x1="0" y1="0" x2="0" y2="5" style="visibility: inherit;" fill="rgb(0, 0, 0)" stroke="rgb(204, 204, 204)" stroke-width="1px"></line><line x1="19.81971153846154" y1="0" x2="19.81971153846154" y2="5" style="visibility: inherit;" fill="rgb(0, 0, 0)" stroke="rgb(204, 204, 204)" stroke-width="1px"></line><line x1="39.63942307692308" y1="0" x2="39.63942307692308" y2="5" style="visibility: inherit;" fill="rgb(0, 0, 0)" stroke="rgb(204, 204, 204)" stroke-width="1px"></line><line x1="59.45913461538462" y1="0" x2="59.45913461538462" y2="5" style="visibility: inherit;" fill="rgb(0, 0, 0)" stroke="rgb(204, 204, 204)" stroke-width="1px"></line><line x1="79.27884615384616" y1="0" x2="79.27884615384616" y2="5" style="visibility: inherit;" fill="rgb(0, 0, 0)" stroke="rgb(204, 204, 204)" stroke-width="1px"></line><line x1="99.0985576923077" y1="0" x2="99.0985576923077" y2="5" style="visibility: inherit;" fill="rgb(0, 0, 0)" stroke="rgb(204, 204, 204)" stroke-width="1px"></line><line x1="118.91826923076924" y1="0" x2="118.91826923076924" y2="5" style="visibility: inherit;" fill="rgb(0, 0, 0)" stroke="rgb(204, 204, 204)" stroke-width="1px"></line><line x1="138.73798076923077" y1="0" x2="138.73798076923077" y2="5" style="visibility: inherit;" fill="rgb(0, 0, 0)" stroke="rgb(204, 204, 204)" stroke-width="1px"></line><line x1="158.55769230769232" y1="0" x2="158.55769230769232" y2="5" style="visibility: inherit;" fill="rgb(0, 0, 0)" stroke="rgb(204, 204, 204)" stroke-width="1px"></line><line x1="178.37740384615384" y1="0" x2="178.37740384615384" y2="5" style="visibility: inherit;" fill="rgb(0, 0, 0)" stroke="rgb(204, 204, 204)" stroke-width="1px"></line><line x1="198.1971153846154" y1="0" x2="198.1971153846154" y2="5" style="visibility: inherit;" fill="rgb(0, 0, 0)" stroke="rgb(204, 204, 204)" stroke-width="1px"></line><line x1="218.01682692307693" y1="0" x2="218.01682692307693" y2="5" style="visibility: inherit;" fill="rgb(0, 0, 0)" stroke="rgb(204, 204, 204)" stroke-width="1px"></line><line x1="237.83653846153848" y1="0" x2="237.83653846153848" y2="5" style="visibility: inherit;" fill="rgb(0, 0, 0)" stroke="rgb(204, 204, 204)" stroke-width="1px"></line><line x1="257.65625" y1="0" x2="257.65625" y2="5" style="visibility: inherit;" fill="rgb(0, 0, 0)" stroke="rgb(204, 204, 204)" stroke-width="1px"></line></g><g transform="translate(0, 8)"><text x="0" y="0" dx="0em" dy="0.95em" style="text-anchor: middle; visibility: hidden; font-family: Roboto, sans-serif; font-size: 12px; font-weight: 200;" fill="rgb(33, 33, 33)" stroke="none" stroke-width="1px">0</text><text x="19.81971153846154" y="0" dx="0em" dy="0.95em" style="text-anchor: middle; visibility: inherit; font-family: Roboto, sans-serif; font-size: 12px; font-weight: 200;" fill="rgb(33, 33, 33)" stroke="none" stroke-width="1px">5k</text><text x="39.63942307692308" y="0" dx="0em" dy="0.95em" style="text-anchor: middle; visibility: hidden; font-family: Roboto, sans-serif; font-size: 12px; font-weight: 200;" fill="rgb(33, 33, 33)" stroke="none" stroke-width="1px">10k</text><text x="59.45913461538462" y="0" dx="0em" dy="0.95em" style="text-anchor: middle; visibility: inherit; font-family: Roboto, sans-serif; font-size: 12px; font-weight: 200;" fill="rgb(33, 33, 33)" stroke="none" stroke-width="1px">15k</text><text x="79.27884615384616" y="0" dx="0em" dy="0.95em" style="text-anchor: middle; visibility: hidden; font-family: Roboto, sans-serif; font-size: 12px; font-weight: 200;" fill="rgb(33, 33, 33)" stroke="none" stroke-width="1px">20k</text><text x="99.0985576923077" y="0" dx="0em" dy="0.95em" style="text-anchor: middle; visibility: inherit; font-family: Roboto, sans-serif; font-size: 12px; font-weight: 200;" fill="rgb(33, 33, 33)" stroke="none" stroke-width="1px">25k</text><text x="118.91826923076924" y="0" dx="0em" dy="0.95em" style="text-anchor: middle; visibility: hidden; font-family: Roboto, sans-serif; font-size: 12px; font-weight: 200;" fill="rgb(33, 33, 33)" stroke="none" stroke-width="1px">30k</text><text x="138.73798076923077" y="0" dx="0em" dy="0.95em" style="text-anchor: middle; visibility: inherit; font-family: Roboto, sans-serif; font-size: 12px; font-weight: 200;" fill="rgb(33, 33, 33)" stroke="none" stroke-width="1px">35k</text><text x="158.55769230769232" y="0" dx="0em" dy="0.95em" style="text-anchor: middle; visibility: hidden; font-family: Roboto, sans-serif; font-size: 12px; font-weight: 200;" fill="rgb(33, 33, 33)" stroke="none" stroke-width="1px">40k</text><text x="178.37740384615384" y="0" dx="0em" dy="0.95em" style="text-anchor: middle; visibility: inherit; font-family: Roboto, sans-serif; font-size: 12px; font-weight: 200;" fill="rgb(33, 33, 33)" stroke="none" stroke-width="1px">45k</text><text x="198.1971153846154" y="0" dx="0em" dy="0.95em" style="text-anchor: middle; visibility: hidden; font-family: Roboto, sans-serif; font-size: 12px; font-weight: 200;" fill="rgb(33, 33, 33)" stroke="none" stroke-width="1px">50k</text><text x="218.01682692307693" y="0" dx="0em" dy="0.95em" style="text-anchor: middle; visibility: inherit; font-family: Roboto, sans-serif; font-size: 12px; font-weight: 200;" fill="rgb(33, 33, 33)" stroke="none" stroke-width="1px">55k</text><text x="237.83653846153848" y="0" dx="0em" dy="0.95em" style="text-anchor: middle; visibility: hidden; font-family: Roboto, sans-serif; font-size: 12px; font-weight: 200;" fill="rgb(33, 33, 33)" stroke="none" stroke-width="1px">60k</text><text x="257.65625" y="0" dx="0em" dy="0.95em" style="text-anchor: middle; visibility: hidden; font-family: Roboto, sans-serif; font-size: 12px; font-weight: 200;" fill="rgb(33, 33, 33)" stroke="none" stroke-width="1px">65k</text></g><line x1="0" y1="0" x2="257.65625" y2="0" fill="rgb(0, 0, 0)" stroke="rgb(204, 204, 204)" stroke-width="1px"></line></g></g></g></g></svg>