<svg viewBox="0 0 330 200" xmlns="http://www.w3.org/2000/svg"><g><g><g><g><g><line x1="72.34375" y1="177" x2="67.34375" y2="177" style="visibility: inherit;" fill="rgb(0, 0, 0)" stroke="rgb(204, 204, 204)" stroke-width="1px"></line><line x1="72.34375" y1="164.3571428571429" x2="67.34375" y2="164.3571428571429" style="visibility: inherit;" fill="rgb(0, 0, 0)" stroke="rgb(204, 204, 204)" stroke-width="1px"></line><line x1="72.34375" y1="151.7142857142857" x2="67.34375" y2="151.7142857142857" style="visibility: inherit;" fill="rgb(0, 0, 0)" stroke="rgb(204, 204, 204)" stroke-width="1px"></line><line x1="72.34375" y1="139.07142857142858" x2="67.34375" y2="139.07142857142858" style="visibility: inherit;" fill="rgb(0, 0, 0)" stroke="rgb(204, 204, 204)" stroke-width="1px"></line><line x1="72.34375" y1="126.42857142857144" x2="67.34375" y2="126.42857142857144" style="visibility: inherit;" fill="rgb(0, 0, 0)" stroke="rgb(204, 204, 204)" stroke-width="1px"></line><line x1="72.34375" y1="113.78571428571428" x2="67.34375" y2="113.78571428571428" style="visibility: inherit;" fill="rgb(0, 0, 0)" stroke="rgb(204, 204, 204)" stroke-width="1px"></line><line x1="72.34375" y1="101.14285714285715" x2="67.34375" y2="101.14285714285715" style="visibility: inherit;" fill="rgb(0, 0, 0)" stroke="rgb(204, 204, 204)" stroke-width="1px"></line><line x1="72.34375" y1="88.49999999999996" x2="67.34375" y2="88.49999999999996" style="visibility: inherit;" fill="rgb(0, 0, 0)" stroke="rgb(204, 204, 204)" stroke-width="1px"></line><line x1="72.34375" y1="75.85714285714285" x2="67.34375" y2="75.85714285714285" style="visibility: inherit;" fill="rgb(0, 0, 0)" stroke="rgb(204, 204, 204)" stroke-width="1px"></line><line x1="72.34375" y1="63.21428571428572" x2="67.34375" y2="63.21428571428572" style="visibility: inherit;" fill="rgb(0, 0, 0)" stroke="rgb(204, 204, 204)" stroke-width="1px"></line><line x1="72.34375" y1="50.57142857142853" x2="67.34375" y2="50.57142857142853" style="visibility: inherit;" fill="rgb(0, 0, 0)" stroke="rgb(204, 204, 204)" stroke-width="1px"></line><line x1="72.34375" y1="37.92857142857143" x2="67.34375" y2="37.92857142857143" style="visibility: inherit;" fill="rgb(0, 0, 0)" stroke="rgb(204, 204, 204)" stroke-width="1px"></line><line x1="72.34375" y1="25.285714285714217" x2="67.34375" y2="25.285714285714217" style="visibility: inherit;" fill="rgb(0, 0, 0)" stroke="rgb(204, 204, 204)" stroke-width="1px"></line><line x1="72.34375" y1="12.642857142857117" x2="67.34375" y2="12.642857142857117" style="visibility: inherit;" fill="rgb(0, 0, 0)" stroke="rgb(204, 204, 204)" stroke-width="1px"></line><line x1="72.34375" y1="0" x2="67.34375" y2="0" style="visibility: inherit;" fill="rgb(0, 0, 0)" stroke="rgb(204, 204, 204)" stroke-width="1px"></line></g><g transform="translate(62.34375, 0)"><text x="0" y="177" dx="0em" dy="0.3em" style="text-anchor: end; visibility: hidden; font-family: Roboto, sans-serif; font-size: 12px; font-weight: 200;" fill="rgb(33, 33, 33)" stroke="none" stroke-width="1px">3.8e-5</text><text x="0" y="164.3571428571429" dx="0em" dy="0.3em" style="text-anchor: end; visibility: inherit; font-family: Roboto, sans-serif; font-size: 12px; font-weight: 200;" fill="rgb(33, 33, 33)" stroke="none" stroke-width="1px">3.9e-5</text><text x="0" y="151.7142857142857" dx="0em" dy="0.3em" style="text-anchor: end; visibility: hidden; font-family: Roboto, sans-serif; font-size: 12px; font-weight: 200;" fill="rgb(33, 33, 33)" stroke="none" stroke-width="1px">4e-5</text><text x="0" y="139.07142857142858" dx="0em" dy="0.3em" style="text-anchor: end; visibility: inherit; font-family: Roboto, sans-serif; font-size: 12px; font-weight: 200;" fill="rgb(33, 33, 33)" stroke="none" stroke-width="1px">4.1e-5</text><text x="0" y="126.42857142857144" dx="0em" dy="0.3em" style="text-anchor: end; visibility: hidden; font-family: Roboto, sans-serif; font-size: 12px; font-weight: 200;" fill="rgb(33, 33, 33)" stroke="none" stroke-width="1px">4.2e-5</text><text x="0" y="113.78571428571428" dx="0em" dy="0.3em" style="text-anchor: end; visibility: inherit; font-family: Roboto, sans-serif; font-size: 12px; font-weight: 200;" fill="rgb(33, 33, 33)" stroke="none" stroke-width="1px">4.3e-5</text><text x="0" y="101.14285714285715" dx="0em" dy="0.3em" style="text-anchor: end; visibility: hidden; font-family: Roboto, sans-serif; font-size: 12px; font-weight: 200;" fill="rgb(33, 33, 33)" stroke="none" stroke-width="1px">4.4e-5</text><text x="0" y="88.49999999999996" dx="0em" dy="0.3em" style="text-anchor: end; visibility: inherit; font-family: Roboto, sans-serif; font-size: 12px; font-weight: 200;" fill="rgb(33, 33, 33)" stroke="none" stroke-width="1px">4.5e-5</text><text x="0" y="75.85714285714285" dx="0em" dy="0.3em" style="text-anchor: end; visibility: hidden; font-family: Roboto, sans-serif; font-size: 12px; font-weight: 200;" fill="rgb(33, 33, 33)" stroke="none" stroke-width="1px">4.6e-5</text><text x="0" y="63.21428571428572" dx="0em" dy="0.3em" style="text-anchor: end; visibility: inherit; font-family: Roboto, sans-serif; font-size: 12px; font-weight: 200;" fill="rgb(33, 33, 33)" stroke="none" stroke-width="1px">4.7e-5</text><text x="0" y="50.57142857142853" dx="0em" dy="0.3em" style="text-anchor: end; visibility: hidden; font-family: Roboto, sans-serif; font-size: 12px; font-weight: 200;" fill="rgb(33, 33, 33)" stroke="none" stroke-width="1px">4.8e-5</text><text x="0" y="37.92857142857143" dx="0em" dy="0.3em" style="text-anchor: end; visibility: inherit; font-family: Roboto, sans-serif; font-size: 12px; font-weight: 200;" fill="rgb(33, 33, 33)" stroke="none" stroke-width="1px">4.9e-5</text><text x="0" y="25.285714285714217" dx="0em" dy="0.3em" style="text-anchor: end; visibility: hidden; font-family: Roboto, sans-serif; font-size: 12px; font-weight: 200;" fill="rgb(33, 33, 33)" stroke="none" stroke-width="1px">5e-5</text><text x="0" y="12.642857142857117" dx="0em" dy="0.3em" style="text-anchor: end; visibility: inherit; font-family: Roboto, sans-serif; font-size: 12px; font-weight: 200;" fill="rgb(33, 33, 33)" stroke="none" stroke-width="1px">5.1e-5</text><text x="0" y="0" dx="0em" dy="0.3em" style="text-anchor: end; visibility: hidden; font-family: Roboto, sans-serif; font-size: 12px; font-weight: 200;" fill="rgb(33, 33, 33)" stroke="none" stroke-width="1px">5.2e-5</text></g><line x1="72.34375" y1="0" x2="72.34375" y2="177" fill="rgb(0, 0, 0)" stroke="rgb(204, 204, 204)" stroke-width="1px"></line></g></g><g transform="translate(72, 0)" clip-path="url(#clip_0)"><clipPath id="clip_0"><rect width="257" height="177"></rect></clipPath><g><g><g><line x1="0" y1="0" x2="0" y2="177" fill="rgb(0, 0, 0)" stroke="rgb(66, 66, 66)" stroke-width="1px" opacity="0.25"></line><line x1="19.81971153846154" y1="0" x2="19.81971153846154" y2="177" fill="rgb(0, 0, 0)" stroke="rgb(66, 66, 66)" stroke-width="1px" opacity="0.25"></line><line x1="39.63942307692308" y1="0" x2="39.63942307692308" y2="177" fill="rgb(0, 0, 0)" stroke="rgb(66, 66, 66)" stroke-width="1px" opacity="0.25"></line><line x1="59.45913461538462" y1="0" x2="59.45913461538462" y2="177" fill="rgb(0, 0, 0)" stroke="rgb(66, 66, 66)" stroke-width="1px" opacity="0.25"></line><line x1="79.27884615384616" y1="0" x2="79.27884615384616" y2="177" fill="rgb(0, 0, 0)" stroke="rgb(66, 66, 66)" stroke-width="1px" opacity="0.25"></line><line x1="99.0985576923077" y1="0" x2="99.0985576923077" y2="177" fill="rgb(0, 0, 0)" stroke="rgb(66, 66, 66)" stroke-width="1px" opacity="0.25"></line><line x1="118.91826923076924" y1="0" x2="118.91826923076924" y2="177" fill="rgb(0, 0, 0)" stroke="rgb(66, 66, 66)" stroke-width="1px" opacity="0.25"></line><line x1="138.73798076923077" y1="0" x2="138.73798076923077" y2="177" fill="rgb(0, 0, 0)" stroke="rgb(66, 66, 66)" stroke-width="1px" opacity="0.25"></line><line x1="158.55769230769232" y1="0" x2="158.55769230769232" y2="177" fill="rgb(0, 0, 0)" stroke="rgb(66, 66, 66)" stroke-width="1px" opacity="0.25"></line><line x1="178.37740384615384" y1="0" x2="178.37740384615384" y2="177" fill="rgb(0, 0, 0)" stroke="rgb(66, 66, 66)" stroke-width="1px" opacity="0.25"></line><line x1="198.1971153846154" y1="0" x2="198.1971153846154" y2="177" fill="rgb(0, 0, 0)" stroke="rgb(66, 66, 66)" stroke-width="1px" opacity="0.25"></line><line x1="218.01682692307693" y1="0" x2="218.01682692307693" y2="177" fill="rgb(0, 0, 0)" stroke="rgb(66, 66, 66)" stroke-width="1px" opacity="0.25"></line><line x1="237.83653846153848" y1="0" x2="237.83653846153848" y2="177" fill="rgb(0, 0, 0)" stroke="rgb(66, 66, 66)" stroke-width="1px" opacity="0.25"></line><line x1="257.65625" y1="0" x2="257.65625" y2="177" fill="rgb(0, 0, 0)" stroke="rgb(66, 66, 66)" stroke-width="1px" opacity="0.25"></line></g><g><line x1="0" y1="177" x2="257.65625" y2="177" fill="rgb(0, 0, 0)" stroke="rgb(66, 66, 66)" stroke-width="1px" opacity="0.25"></line><line x1="0" y1="164.3571428571429" x2="257.65625" y2="164.3571428571429" fill="rgb(0, 0, 0)" stroke="rgb(66, 66, 66)" stroke-width="1px" opacity="0.25"></line><line x1="0" y1="151.7142857142857" x2="257.65625" y2="151.7142857142857" fill="rgb(0, 0, 0)" stroke="rgb(66, 66, 66)" stroke-width="1px" opacity="0.25"></line><line x1="0" y1="139.07142857142858" x2="257.65625" y2="139.07142857142858" fill="rgb(0, 0, 0)" stroke="rgb(66, 66, 66)" stroke-width="1px" opacity="0.25"></line><line x1="0" y1="126.42857142857144" x2="257.65625" y2="126.42857142857144" fill="rgb(0, 0, 0)" stroke="rgb(66, 66, 66)" stroke-width="1px" opacity="0.25"></line><line x1="0" y1="113.78571428571428" x2="257.65625" y2="113.78571428571428" fill="rgb(0, 0, 0)" stroke="rgb(66, 66, 66)" stroke-width="1px" opacity="0.25"></line><line x1="0" y1="101.14285714285715" x2="257.65625" y2="101.14285714285715" fill="rgb(0, 0, 0)" stroke="rgb(66, 66, 66)" stroke-width="1px" opacity="0.25"></line><line x1="0" y1="88.49999999999996" x2="257.65625" y2="88.49999999999996" fill="rgb(0, 0, 0)" stroke="rgb(66, 66, 66)" stroke-width="1px" opacity="0.25"></line><line x1="0" y1="75.85714285714285" x2="257.65625" y2="75.85714285714285" fill="rgb(0, 0, 0)" stroke="rgb(66, 66, 66)" stroke-width="1px" opacity="0.25"></line><line x1="0" y1="63.21428571428572" x2="257.65625" y2="63.21428571428572" fill="rgb(0, 0, 0)" stroke="rgb(66, 66, 66)" stroke-width="1px" opacity="0.25"></line><line x1="0" y1="50.57142857142853" x2="257.65625" y2="50.57142857142853" fill="rgb(0, 0, 0)" stroke="rgb(66, 66, 66)" stroke-width="1px" opacity="0.25"></line><line x1="0" y1="37.92857142857143" x2="257.65625" y2="37.92857142857143" fill="rgb(0, 0, 0)" stroke="rgb(66, 66, 66)" stroke-width="1px" opacity="0.25"></line><line x1="0" y1="25.285714285714217" x2="257.65625" y2="25.285714285714217" fill="rgb(0, 0, 0)" stroke="rgb(66, 66, 66)" stroke-width="1px" opacity="0.25"></line><line x1="0" y1="12.642857142857117" x2="257.65625" y2="12.642857142857117" fill="rgb(0, 0, 0)" stroke="rgb(66, 66, 66)" stroke-width="1px" opacity="0.25"></line><line x1="0" y1="0" x2="257.65625" y2="0" fill="rgb(0, 0, 0)" stroke="rgb(66, 66, 66)" stroke-width="1px" opacity="0.25"></line></g></g></g><g><g><line x1="0" y1="657.4285714285716" x2="257.65625" y2="657.4285714285716" fill="rgb(0, 0, 0)" stroke="rgb(153, 153, 153)" stroke-width="1.5px"></line></g></g><g><g><line x1="19.81971153846154" y1="0" x2="19.81971153846154" y2="177" fill="rgb(0, 0, 0)" stroke="rgb(153, 153, 153)" stroke-width="1.5px"></line></g></g><g><g><g><g><g><path stroke="rgb(0, 119, 187)" stroke-width="2px" d="M23.783653846153847,-22.94869162335199L24.243471153846155,44.53666857670725L24.48130769230769,100.57873186394436L24.49716346153846,101.40247290509747L24.624009615384615,92.9279760957667L24.909413461538463,86.94053069207405L25.131394230769228,-0.8114362442134331L25.194817307692308,51.76651803636544L25.52778846153846,72.02096609591058L25.5595,77.94583911482903L25.98760576923077,88.23113475101097L26.035173076923076,46.75433764212453L26.098596153846156,52.951814782235125L26.225442307692308,47.21646754554831L26.526701923076924,68.88742536920574L26.716971153846153,100.96539971508626L27.129221153846157,13.706313045959766L27.371021634615385,82.81326158107234L27.386877403846153,76.05758263451416L27.608858173076925,68.42374911010734L27.799127403846153,-8.618313859945353L27.973540865384614,54.18971510106913L28.021108173076925,77.6293486673203L28.51263701923077,92.29161299938957L28.560204326923078,51.45041793972807L28.988310096153846,53.442608543755874L29.178579326923078,27.321232851899843L29.30542548076923,48.191330680931905L29.495694711538462,67.10978821237103L29.622540865384615,34.00477077225841L29.876233173076923,77.76644273756067L30.082358173076923,49.19270642675875L30.415329326923075,129.82877504501968L30.431185096153843,135.5722005705843L30.573887019230767,112.95266267294669L30.811723557692307,126.87086155585322L30.87911057692308,62.41023308759602L31.03766826923077,37.584608617090296L31.116947115384615,71.96814160384707L31.132802884615383,1.584674444536967L31.59262019230769,-219.65318649314372L34.08197596153846,-0.7792980526306423L34.20882211538462,37.93955533318358L34.94215144230769,25.468240004216792L35.00557451923077,12.23750028724969L35.306834134615386,-31.46813124955032L35.90935336538462,-23.599864407987468L36.00448798076923,27.951336493989086L36.25818028846154,83.13132671174142L36.702141826923075,-104.57057186108108L37.09853605769231,-90.61272317524929L37.24123798076923,17.613561330572633L37.55835336538461,42.008424547720665L38.450240384615384,44.98292901435369L39.35401923076923,-59.301187754663175L39.43329807692308,19.06833241627807L39.607711538461544,55.500619419205265L39.71870192307692,21.564952280047955L39.782125,-17.96176061426694L39.81383653846154,112.82879487200299L39.956538461538464,-130.05985270522245L40.25779807692307,41.68580916860139L40.49563461538461,66.81333407412923L40.59076923076923,6.994891094037605L40.923740384615385,-54.74604282788576L41.018875,39.16254536456754L41.09815384615384,53.12424219664136L41.129865384615385,91.97532280011062L41.351846153846154,2.8754419962315794L41.46283653846154,-28.491400180596795L41.764096153846154,-49.05098743880612L41.77995192307692,40.74993103070615L41.974185096153846,51.0730484368512L42.132742788461535,9.229983352753594L42.16445432692308,1.9279060141280429L42.29130048076923,35.53381504115035L42.43400240384615,95.77958345862942L42.83039663461538,73.19776371186485L42.941387019230774,96.03926790833373L43.27435817307692,79.81592712030789L43.36949278846154,100.09648702024931L43.40120432692308,54.98611079622252L43.44877163461538,61.78290995811426L43.512194711538456,65.54649014997523L43.60732932692308,71.22634942606007L43.67075240384615,-21.274404421389846L43.75003125,29.725323234419623L44.09885817307693,50.419407380043495L44.526963942307695,3.9704733701267294L44.84407932692308,55.422209742051955L45.081915865384616,39.405641091759115L45.14533894230769,20.620844382992363L45.31975240384615,70.11406418569415L45.33560817307692,9.112431462409049L45.989658653846156,55.67849170894155L46.32262980769231,105.350595899063L46.33848557692308,134.02682250582458L46.623889423076925,99.30222243169779L46.63974519230769,80.06657165731541L47.21055288461538,56.462084377232934L47.33739903846154,78.19051279327132L47.46424519230769,68.12096354121128L47.511812500000005,88.87179584845596L48.066764423076926,62.84847388535184L48.11433173076923,98.03046144201346L48.3363125,84.05724313218745L48.38387980769231,47.602462161956964L48.46315865384616,12.50688837121421L48.65342788461538,41.98647666568294L48.827841346153846,62.028479480060945L49.323334134615386,93.73889759904958L49.45018028846154,86.56730861930835L50.00513221153846,85.33744180207243L50.24296875,50.730476581632686L50.512516826923076,104.87106695192399L50.54422836538461,47.96681650939826L50.59179567307692,45.23798663543014L50.655218749999996,41.422425151357935L51.66998798076923,-8.814012692162763L51.70169951923077,70.17804762897302L51.89196875,41.30262343093889L51.93953605769231,67.51116433999509L52.81160336538461,95.9520533650193L52.878990384615385,-10.117533262634135L53.021692307692305,25.51047172821226L53.13268269230769,25.615838934866225L53.46565384615385,70.00049449204707L53.640067307692306,53.57005590869552L53.68763461538462,29.99243098635076L53.78276923076923,34.7636747430642L53.798625,61.38170997017934L54.03646153846154,76.52269809650603L54.22673076923077,144.77164301904992L54.29015384615385,76.95111528036809L54.36943269230769,54.64315660898726L54.401144230769226,95.36990780631612L54.607269230769234,42.24245352942644L54.623125,6.314868651131488L54.70240384615385,85.86362897312735L54.90852884615384,87.08269242961462L56.35140384615384,110.17174010625381L56.498069711538456,83.87490040725102L56.65662740384615,36.68444153329089L56.831040865384615,113.38624015202821L57.053021634615384,84.54119358149526L57.06887740384615,78.43599355669278L57.13230048076923,135.659497360099L57.14815625,62.29398421469584L57.449415865384616,51.43945223858074L58.32148317307692,66.21978865346458L58.55931971153846,91.21364038836825L58.65445432692308,97.28102875002006L59.03499278846154,79.08815035188687L59.114271634615385,48.696081566383484L60.307418269230766,86.4094457371409L60.67210096153846,69.71233514118775L60.941649038461534,104.5765567826003L61.496600961538455,71.1335995158976L62.162543269230774,11.589301193480637L62.241822115384615,75.3034478033799L62.44794711538462,39.01973146477923L62.57479326923077,64.54616804163757L62.62236057692308,56.89079906057521L62.93947596153846,89.28948180912373L63.14560096153846,74.92103169540148L63.22487980769231,99.74616406571745L63.44686057692307,90.20783909627147L63.478572115384615,71.68348734228803L63.621274038461536,91.69495023176793L63.65298557692308,108.103762889967L64.22775721153846,168.76682603904058L64.40217067307692,123.55200743751246L64.41802644230769,89.07700958931107L64.75099759615384,58.2795547083654L64.86198798076923,30.53665487365908L65.19495913461539,95.73700619815102L65.32180528846153,123.08163643606562L65.44865144230769,140.62868610619788L65.87675721153846,96.35583009756928L65.94018028846153,164.83818612100535L66.05117067307692,131.82707253722202L66.09873798076923,119.07582471791663L66.24143990384614,87.07458197191083L66.47927644230768,84.84463136444727L66.55855528846155,117.26331886942764L66.62197836538462,54.464029899747416L66.81224759615384,80.55794882582254L66.82810336538462,50.39601144992881L66.8915264423077,111.24938921819906L66.97080528846153,112.85416214123424L66.9866610576923,99.16171449665124L67.19278605769232,63.4501838759265L67.20864182692307,66.41071198556776L67.22449759615384,27.861339106360457L67.3037764423077,88.64450873401074L67.38305528846153,48.89648386924044L67.43062259615385,75.06990405906305L67.59314423076923,82.66939253466562L67.70413461538462,23.398753257310382L68.13224038461539,80.31808884973125L68.48106730769231,91.73620425196968L68.63962500000001,99.49947418431648L68.90917307692307,80.54267125610659L68.92502884615385,52.77614523766379L69.86051923076923,86.3501808384153L70.06664423076923,96.58209114828074L70.35204807692307,132.18376394524427L70.39961538461539,118.53793309275281L70.51060576923076,82.61979408441277L70.55817307692308,123.24017462336367L70.68501923076923,98.36391146818882L71.4183485576923,116.09865938064141L71.65618509615385,123.75032072365111L71.86231009615385,105.02196071368034L72.43311778846154,88.3195670697055L72.4489735576923,42.6012523641002L72.75023317307694,150.07911058224587L72.76608894230769,141.60029485640567L72.78194471153846,133.89462929232323L73.00392548076923,63.048363955400085L73.01978125,71.81130306418997L73.03563701923078,85.94683187767326L73.14662740384615,131.04515960606784L73.41617548076923,99.77834987142559L73.86013701923078,83.48290320996772L74.16139663461539,114.41642612139403L74.27238701923076,44.79611484812923L74.3516658653846,126.42055686409108L74.55779086538462,88.99495927100307L74.60535817307692,140.22164592351078L74.74806009615384,92.08298982797551L74.94229326923076,57.47799905531348L75.32283173076924,111.89850876907514L75.37039903846154,17.817366350631893L75.97291826923076,59.911273923263614L76.51201442307693,83.40354025106983L76.76570673076922,91.41835276635602L77.05111057692308,89.14291130906545L77.22552403846154,96.99835302267596L77.35237019230769,87.13625792890605L77.52678365384615,71.52901467921983L77.74876442307692,75.46750668369069L78.43056250000001,26.964613611844644L78.78335336538463,46.00990124193789L78.79920913461538,42.720875922759014L78.91019951923077,87.9616543079699L78.94191105769231,103.78523863479852L79.05290144230769,95.49081609049942L79.46515144230769,105.42873658700809L79.75055528846153,53.821756002151695L80.09938221153845,65.89220097963187L80.14694951923076,76.79172791781234L80.25793990384615,94.42177361472403L80.4482091346154,117.44154258022634L80.63847836538461,109.5321272917491L80.84460336538461,128.19350089211363L80.86045913461538,103.93623350337378L80.89217067307692,64.08324900779891L81.11415144230769,78.75000710957472L81.49468990384615,64.59809979455439L81.54225721153847,90.56721648938807L81.57396874999999,22.7313694144725L81.60568028846154,36.55538928100275L81.65324759615385,61.1254140532752L81.71667067307693,86.55803407898834L81.76423798076922,120.80634942167728L82.06549759615385,89.62288122554092L82.41828846153845,48.106142640178234L82.49756730769231,24.387922925589287L82.94152884615384,110.07064295656625L82.98909615384615,77.65887576388208L83.08423076923077,78.6318942632778L83.19522115384616,78.67373715711784L83.22693269230768,79.38526432242455L83.52819230769231,112.43038161850484L83.54404807692308,139.38250449271044L83.60747115384615,62.7635740836564L83.65503846153847,121.23182437404331L84.57467307692308,71.19796484594902L84.60638461538461,122.73962863553346L84.76494230769231,84.80413517619021L84.90764423076924,57.10627545101542L85.43088461538461,81.46270071833243L85.57358653846154,85.07923920036023L85.63700961538461,87.29701577604965L85.73214423076924,87.33050917151088L85.92637740384616,46.877321524924035L85.97394471153846,118.27006259123112L86.44961778846154,130.54624518536383L86.59231971153845,64.58522736869584L86.68745432692307,110.42943507267634L87.17898317307693,132.6594371805284L87.21069471153845,124.68322191466795L87.3533966346154,63.29905866969251L87.52781009615384,79.59785856575108L87.62294471153845,85.81793962230003L87.73393509615384,9.037906572161557L88.32059855769232,86.94015583488304L88.71699278846154,110.69288695548599L88.81212740384615,137.7613882174255L88.90726201923077,106.67496707538001L88.95482932692309,98.08858467471032L89.30365625,117.73176832128587L89.86257211538462,139.40994781428378L90.03698557692307,79.14275454538372L90.5919375,140.57430852398238L90.89319711538462,95.62187215271267L90.94076442307693,124.29193211763648L90.98833173076922,72.76709178252582L91.06761057692307,83.33269893094392L92.0348125,49.3160949174021L92.11409134615384,75.07639165808892L92.19337019230768,105.12321767468794L92.2885048076923,96.76746885045935L93.00201442307693,121.72099374701278L93.25967067307693,125.49457751452992L93.6877764423077,126.77912999962169L93.8939014423077,101.70671006637362L94.02074759615385,102.67449705690689L94.19516105769232,156.93030658281484L94.38543028846154,97.16674549493742L94.75011298076923,75.98992757673325L94.84524759615384,50.27328047943561L95.32092067307691,90.68848663695474L95.47947836538461,94.47259453304576L95.5429014423077,107.56707356034175L95.93929567307693,142.58500952031474L96.00271875,141.8063803349744L96.09785336538462,135.97715689441156L96.65280528846155,17.2714770583383L96.70037259615384,78.05570458442561L97.291,6.031728883109344L97.44955769230769,57.817241388474294L97.7508173076923,76.74860171537671L97.87766346153846,128.17263111717963L97.94108653846153,12.142247295029598L97.97279807692307,27.04320237951158L98.06793269230769,78.07427551446543L98.2106346153846,99.2062438192997L98.35333653846155,109.22015481998768L98.57531730769232,83.503428961736L98.68630769230768,46.31012046955849L99.03513461538462,115.33719219648081L99.146125,125.21040644747274L99.24125961538462,81.7497504871512L99.3046826923077,130.57986932527615L99.32053846153846,160.7974122573158L99.74864423076923,103.63995619164186L99.79621153846155,102.47420975293242L99.84377884615385,106.53762099976608L99.90720192307693,113.12713226519416L100.16089423076923,115.63071067725842L100.19260576923078,131.63199803894528L100.24017307692307,79.17251459354777L100.25602884615385,130.7525641159576L100.382875,132.0898409629498L100.98935817307692,127.80796802034517L101.19548317307692,136.94557285312237L101.43331971153846,122.094450155507L101.73457932692308,118.6156892170306L101.79800240384616,107.75606594638005L101.90899278846153,124.15704239103694L102.05169471153847,129.88081507293046L102.5432235576923,62.89025001532294L102.71763701923076,151.88475250518L103.22502163461539,119.60156117503799L103.60556009615385,93.14902062361388L103.90681971153846,147.04024016283648L104.11294471153846,155.4501467809718L104.12880048076923,175.67777327577963L104.25961057692307,92.54603404611251L104.29132211538462,76.80791461164894L104.95726442307694,83.17784494307068L105.02068750000001,157.26952660751016L105.08411057692308,124.22166032576922L105.25852403846154,112.80597169214704L105.27437980769231,98.28488360637718L105.30609134615385,121.99247150234036L105.32194711538462,154.55805893480132L105.82933173076924,103.33517121019919L106.00374519230769,133.93522184084597L106.03545673076923,60.33705214103965L106.11473557692308,82.57270664110692L106.14644711538462,99.78438417762109L106.32086057692307,162.15360360396062L106.43185096153846,66.06011924716664L106.63797596153846,92.32876150923441L106.8758125,108.04446533689871L107.01851442307692,152.3053845081465L107.06608173076923,152.6699850328876L107.54175480769231,114.34312524088148L107.91040144230769,104.63865438521597L107.92625721153847,141.2219928128101L107.97382451923077,162.1281894753999L108.00553605769231,190.22046413161763L108.06895913461538,82.18724732675037L108.16409375,125.89551040703002L108.60805528846154,73.9962569475469L108.73490144230769,168.46134917221994L109.09958413461538,181.61991430035096L109.24228605769231,160.5960880109955L109.25814182692308,113.45789346480363L109.9240841346154,152.97656269798554L110.06678605769231,103.09581593612833L110.14606490384615,140.59480362203976L110.85957451923078,81.49047995302323L110.93885336538462,102.57960043758304L110.95470913461538,155.1166670849741L111.12912259615383,146.3074336733179L111.513625,150.7885801925394L111.86245192307693,128.61729476167244L112.44911538461538,112.52079748775986L113.22604807692306,57.449866318390384L113.44802884615385,96.36199671429749L114.33595192307692,116.11317167576675L114.44694230769231,159.71500227069117L114.79576923076924,149.92137143821938L114.84333653846154,154.96301372883246L114.87504807692308,129.02839465896201L114.89090384615383,156.4259288729004L115.25955048076922,156.1795380145528L115.3863966346154,158.34069646395545L116.06819471153845,154.25827034737875L116.60729086538461,165.46546375616342L116.81341586538461,121.52766425591079L116.86098317307692,141.91556405499833L117.90746394230769,145.74261967357793L118.03431009615385,116.9722386971768L118.16115625,150.14030092959044L118.43070432692308,127.84033091624305L118.57340625,97.4493782780157L118.68439663461538,116.20016438801908L118.77953125,76.01048096237864L118.8786298076923,61.81369826148627L119.4494375,151.51440842760428L119.57628365384615,141.47666319414213L119.94096634615384,134.66219792412517L119.97267788461538,49.82897202935486L119.98853365384615,107.46527361191971L120.49591826923077,117.66664270585316L120.52762980769232,174.2539647106424L120.8447451923077,134.31731347537973L120.92402403846154,101.7963716246221L120.95573557692308,154.41410439358185L120.98744711538463,115.42250227686203L121.39969711538463,141.23314946767678L121.98636057692308,114.72856797272553L122.0814951923077,118.39711399660605L122.24005288461538,105.8721686027161L122.30347596153845,134.04281041358456L122.59284375,141.18664188484186L123.1636514423077,128.124414961596L123.19536298076922,81.39016699491322L123.30635336538461,85.5805999051282L123.43319951923077,83.12264688244282L123.44905528846154,124.96875101766881L123.49662259615386,143.10339481674345L123.94058413461538,115.11837320366374L124.00400721153846,32.24939365943303L124.03571875,75.97982831056706L124.24184375,118.51917655584208L124.41625721153846,134.36723472107465L124.43211298076923,121.19009772745272L124.51139182692307,122.03242653016946L124.59067067307693,123.7311275033171L125.17733413461538,151.40991561171523L125.46273798076923,129.21590637562875L125.76399759615384,135.22356353719346L126.01768990384616,100.70122883574598L126.24363461538462,193.82155171716843L126.52903846153846,112.12521414769117L126.57660576923077,104.94145573759307L127.11570192307693,98.16206931736065L127.16326923076923,66.29338330652392L127.30597115384616,33.08468166602441L127.40110576923077,50.40720257853518L127.48038461538462,76.3359670914991L127.68650961538461,60.41454929247375L127.76578846153846,135.05752643841683L128.01948076923077,171.50977686466388L128.0987596153846,108.48666064253784L128.17803846153848,110.50852496541955L128.24146153846155,94.85059824785L128.49515384615384,70.72210982525704L129.03425000000001,155.47427816114808L129.41478846153845,140.12602778309582L129.9737043269231,115.46210740950667L130.08469471153848,89.87424855006073L130.1639735576923,86.861479438308L130.2273966346154,163.2735457701542L130.32253125,144.96744528407174L130.38595432692307,146.88350990518947L130.6396466346154,76.13806045061875L130.81406009615384,136.14099341747763L131.0518966346154,120.05229206651548L131.1945985576923,146.8281281808744L131.4641466346154,135.57597646364508L131.76540624999998,141.233142656466L132.01909855769233,170.27625499301965L132.09837740384614,110.7730309679716L132.13008894230768,135.3598276533609L132.2252235576923,113.87900528656978L132.36792548076923,63.615753666853784L132.62161778846155,115.99241122665896L133.23999278846154,71.64091726270136L133.27170432692307,71.98639687961771L133.31927163461538,166.16413999292234L133.49764903846153,55.49705732870863L133.6086394230769,127.669147307144L134.21115865384616,118.03776032414382L134.46485096153847,124.2990565782303L134.54412980769231,134.10174407772578L134.57584134615385,164.27750830868698L134.8929567307692,167.3578825718353L135.0673701923077,148.9080726451129L135.30520673076924,132.37451290824137L135.46376442307692,125.07383055869954L135.9870048076923,132.91871377226119L136.46267788461537,93.06582504302311L136.51024519230768,58.547673394045745L136.60537980769232,100.37851176640957L137.2118629807692,96.06740899230991L137.41798798076923,140.02049490532843L137.43384375,127.53592585070254L137.46555528846153,142.3811289561143L137.56068990384614,73.11475694447688L137.60825721153847,77.20162884851355L137.8936610576923,123.37947239790235L138.17906490384615,116.12717405870265L138.55960336538462,104.21228330799887L138.6230264423077,116.59766030474125L138.8132956730769,152.7369031640661L138.95599759615382,110.38293822315794L139.49509375,112.33603714882855L139.90734375000002,147.51654276729644L139.97076682692307,58.03941173372648L140.0024783653846,78.19995493367688L140.20860336538462,127.78369939953255L140.28788221153846,203.6851770533812L140.43058413461537,129.30566155615668L140.71598798076923,122.69340398952102L141.33832692307692,129.34293169130277L141.51274038461537,114.05442437227414L141.52859615384617,144.50487750496038L141.97255769230767,162.60281239848564L142.03598076923078,141.0497852179495L142.0676923076923,82.13584271363285L142.25796153846153,52.155677793581766L142.6385,93.83199680031302L142.82876923076924,138.96333573764525L142.95561538461538,182.63128362492435L143.05075,162.54063863512528L143.22516346153844,108.62871060843214L143.35200961538462,115.28139775850433L143.38372115384615,124.10120538254515L143.47885576923076,142.82245994545676L144.0179519230769,146.93104373208712L144.16065384615382,118.86965782682724L144.19236538461539,109.13115289748724L144.2399326923077,123.31471462807711L144.73542548076924,91.4704231550705L144.75128125,91.8428598301611L144.83056009615385,127.79391182549199L145.08425240384614,106.87271320684943L145.1001081730769,51.07305181481974L146.05145432692308,117.46236259274603L146.1465889423077,147.88423866684465L146.19415625,71.31890067561663L146.60640625,47.70430044064955L146.68568509615383,104.60405699952398L147.20892548076924,189.25161417012598L147.22478125,121.35211341465691L147.63703124999998,150.37143086570217L147.9065793269231,159.13374022710872L147.97000240384614,133.89203603683723L148.09684855769228,77.27089786535139L148.18009134615386,68.8345177421298L148.19594711538463,101.32903300926624L148.29108173076924,99.11939302142932L148.60819711538463,94.31584900739324L148.8143221153846,89.89933619915855L148.90945673076922,114.08945157922781L149.30585096153848,135.59405590349346L149.35341826923076,128.81194954417182L150.25719711538463,125.18056789288127L150.9389951923077,152.38336724016938L150.95485096153845,170.92135040791584L150.9865625,153.44076821161673L151.20854326923077,106.30280355901161L151.33538942307692,132.53913827705637L151.70007211538464,94.82964717471768L151.71592788461538,151.23140965763452L152.00529567307692,142.45810850149806L152.41754567307694,131.5624978136659L152.7346610576923,109.76359106278484L152.76637259615387,153.01850429590962L153.06763221153847,137.67910965919427L153.08348798076923,173.63275844121225L153.52744951923077,123.51588942169911L153.65429567307692,145.2393000601711L153.67015144230768,79.78983673086539L153.9079879807692,48.380061559799366L154.11411298076922,114.31590947396039L154.12996875,98.20523521862675L154.52636298076922,36.91471532794517L154.87518990384615,129.3455930303015L154.9703245192308,120.58054953538745L155.01789182692306,122.56326049365089L155.03374759615383,91.10604654517256L155.09717067307693,95.43917122699482L155.17644951923077,118.683525144544L155.2557283653846,159.40198825547174L156.02076923076925,111.58126692115171L156.06833653846155,103.04870176421689L156.24275,146.7389037182349L156.46473076923075,175.10424696891073L156.78184615384615,130.71188807714893L157.00382692307693,155.62460582451405L157.08310576923077,95.48675379558303L157.73319230769232,125.72102850137169L157.7966153846154,95.05204894440546L158.27228846153847,119.52364432035243L158.47841346153845,116.28842840207456L158.74796153846154,79.52155025039289L158.89066346153848,-3.2895007031332435L159.18003125,83.88747231563647L159.27516586538462,131.23643679398293L159.41786778846154,116.3697798929683L160.09966586538462,116.43820975450953L160.28993509615387,118.6440951724205L160.32164663461538,118.1574173603303L160.43263701923078,104.88089304477319L160.9400216346154,53.37619916991348L161.00344471153846,48.513602862903014L161.4949735576923,130.962510762931L161.59010817307694,150.25237395381808L161.87551201923077,117.50161352964228L161.97064663461538,130.12412253145433L162.4146081730769,128.92674848005962L162.44631971153845,150.69623084913428L162.79514663461538,142.71601361565118L162.8308221153846,86.00400983290969L162.9893798076923,59.96643062409041L163.16379326923075,76.2070660475228L163.4967644230769,90.49818523593703L163.54433173076924,108.85634996527047L163.70288942307693,107.5346574166534L164.21027403846153,113.52167321508692L164.28955288461538,120.05854257840346L164.40054326923078,161.08598438420816L164.57495673076923,136.48204323950208L164.67009134615384,131.24279231624226L165.03477403846156,161.21311584086854L165.0981971153846,192.25315367340912L165.39945673076923,146.05444410265542L165.81170673076923,133.81101424630603L165.8751298076923,117.07064067977834L166.01783173076922,94.98268039529734L166.11296634615385,131.55622785398197L166.1922451923077,136.2719078230414L166.4459375,184.19191107661447L166.87800721153846,123.32808184382277L167.13169951923078,127.1529537909356L167.2744014423077,69.91162360249642L167.3853918269231,40.22932202975114L167.4646706730769,82.16337253153304L168.20989182692307,81.20651741458782L168.27331490384614,62.55819222777956L168.76484375,28.3948792184552L168.95511298076923,111.20780163908047L169.36736298076923,110.87632145151821L169.41493028846153,90.77419643885969L169.5259206730769,84.35875180917766L169.57348798076924,85.40562061787581L169.65276682692306,110.28381174233026L169.71618990384616,129.38272374858437L169.85889182692307,138.52383621117394L169.87474759615384,125.85720159536825L169.9381706730769,112.84342148399523L170.06501682692308,132.3008090400181L170.35438461538462,87.26210214437498L170.97275961538463,104.74685542328066L171.16302884615382,92.32446773724104L171.1947403846154,109.06254625635962L171.3057307692308,93.82179210747717L171.46428846153847,167.07706113202477L171.4801442307692,141.53246517564727L171.5435673076923,94.89685025637012L171.63870192307695,106.88589979729153L171.68626923076923,116.44970948593584L171.82897115384614,128.23683651748394L171.93996153846155,142.03586532818585L172.05095192307692,102.59555948213062L172.14608653846153,136.94778603202172L172.1619423076923,103.23573612694324L172.25707692307694,120.20907368012729L172.33635576923078,112.69834078308388L172.49491346153846,95.26045181606908L172.65347115384614,124.68002966147813L172.74860576923078,66.87435842588029L172.9864423076923,115.80367392444698L173.351125,157.90110910289215L173.38283653846156,174.39703034431523L173.58896153846152,128.28771071366265L173.8109423076923,114.47820724791548L173.84661778846151,28.99396415730048L174.10031009615386,154.4792940898839L174.11616586538463,142.56327464585763L174.1320216346154,130.48702956506696L174.60769471153847,141.08582515807737L174.89309855769233,151.519180492981L175.03580048076924,132.4666681574934L175.17850240384615,168.75648175354038L175.33706009615383,151.26812368755049L175.41633894230768,105.00666969140201L175.7651658653846,138.27008261764348L175.89201201923075,110.9345507486666L175.98714663461539,155.77658255448264L176.1932716346154,117.51073360812869L176.71651201923075,116.02382165493688L176.95434855769233,84.97303116485809L177.0019158653846,65.94952743955402L177.01777163461537,84.8860139660151L177.06533894230768,70.0321243699229L177.20804086538462,109.56260130633716L177.2714639423077,88.58800370029807L177.33488701923076,104.89183792880968L177.5291201923077,158.01570445562655L177.54497596153846,119.01590725800307L177.65596634615383,133.59299009705757L178.03650480769232,138.82245631959563L178.06821634615386,111.50233324758585L178.30605288461538,142.86167592032297L178.32190865384615,173.6823085773215L178.6073125,192.54494999963893L178.86100480769232,134.46983078710628L179.0195625,124.35453692695488L179.25739903846153,113.86208402480523L179.4318125,166.04021592079422L179.63793750000002,186.11574877020647L179.84406249999998,148.4601390750042L180.1136105769231,95.91385194287086L180.22460096153847,138.8283696274934L180.54171634615383,36.541595212264234L180.6527067307692,144.55384216974755L180.70027403846154,124.40306393293905L180.8905432692308,146.27345485163L180.90639903846156,145.92365170019622L181.40189182692308,171.9279493825012L181.41774759615384,126.12653896905002L181.4336033653846,110.66087587182415L181.5921610576923,85.37879216792209L181.7982860576923,102.49257701343498L181.89342067307692,87.62158418257843L182.02026682692306,86.24969247824075L182.1154014423077,129.07568897523788L183.22530528846156,159.58604447330086L183.6534110576923,125.72764514784089L184.14493990384616,148.148894051505L184.22421875,108.3085684045617L184.41448798076922,135.42380579793328L185.22709615384616,149.50675909977642L185.2588076923077,154.6946208730442L185.52835576923076,133.401398797663L185.63934615384613,124.82268085782513L185.79790384615384,90.7543758044894L186.4955576923077,65.6393207612808L186.5906923076923,144.60339044427067L186.66997115384615,156.2906734932292L186.92366346153847,129.2833090218169L187.55789423076922,151.71280140782227L187.65302884615386,143.78900051743955L187.70059615384613,157.687656932613L187.7164519230769,97.3880642252128L188.192125,101.9228218713676L188.4973485576923,112.08599393191112L188.64005048076922,137.63471681945947L188.8144639423077,152.77789725840773L189.29013701923077,184.08467261164833L189.3852716346154,134.36371367358024L189.40112740384615,113.20349001363581L189.49626201923078,108.22922832718065L190.17806009615387,160.08948474687205L190.44760817307693,151.92386105117598L190.81229086538463,62.10966609846284L190.9708485576923,52.614133168173126L191.12940625000002,116.9595518031608L191.31967548076923,122.07991746064435L191.4465216346154,30.407546192350548L191.68435817307693,115.64822987106888L191.96976201923076,109.25276556945413L192.2749855769231,112.58123212733354L192.43354326923077,142.73320886609253L192.4652548076923,95.42351061157305L193.44831250000001,165.1685057477551L193.6068701923077,156.0551095166261L193.71786057692307,81.34554597210622L193.79713942307694,83.84117095044908L194.05083173076923,151.7372547912845L194.1618221153846,143.37321897665507L194.17767788461538,100.1946994093284L194.36794711538462,178.9380537060496L194.46308173076923,114.19488786561689L194.85947596153846,112.981689032515L195.06560096153848,114.15487833648143L195.2558701923077,106.72930788102623L195.58884134615383,127.25589988683137L196.11604567307694,124.01807638115457L196.46487259615384,122.95030777876119L196.5282956730769,103.85366380723596L196.86126682692307,122.27450753475851L197.71747836538464,84.67065025043722L197.9236033653846,130.41543130691494L198.44684375,150.16461592553804L198.46269951923077,31.126161556783963L198.5419783653846,56.90890028138115L198.66882451923078,113.71178626320246L198.9542283653846,129.23785505467288L199.1286418269231,118.9231034773845L199.5924230769231,97.86943412878823L199.97296153846153,123.67633653214148L200.06809615384617,131.51892395355665L200.0839519230769,128.51831979284142L200.17908653846155,127.57424867485526L200.21079807692308,120.12596256780552L200.62304807692308,156.97171241872968L200.79746153846153,182.16337117849915L201.39998076923075,160.24608990896016L201.46340384615385,72.94020376118691L201.55853846153846,105.11980811952263L201.66952884615384,149.92941472332694L201.6853846153846,126.79077319763762L201.87565384615385,131.92242197430664L202.16105769230768,157.9342518793988L202.60501923076924,121.69255438284314L202.77943269230767,168.5711888137154L203.12825961538462,140.14615899901582L203.3383485576923,108.3505665843509L203.35420432692308,67.79627585912998L203.48105048076923,138.3802489881291L203.67131971153847,101.99675445283424L203.87744471153846,71.37445019997868L204.35311778846153,53.78120404496775L204.5116754807692,76.18425028602668L204.55924278846155,132.6268645167649L204.59095432692308,63.70976407090727L205.13005048076923,148.08823048036194L205.20932932692307,97.12901935919813L205.24104086538463,97.56702708248214L205.36788701923078,105.03044656276009L205.41545432692308,126.78496561441713L205.4471658653846,102.85198677866101L205.5105889423077,127.48071087863667L205.84356009615385,111.96442925888815L205.8752716346154,209.7537496036216L206.08139663461537,142.262639192032L206.44607932692307,133.49551566929267L206.46193509615384,173.3732127994995L206.92571634615385,126.51942744086706L207.1476971153846,81.01240588985465L207.27454326923078,116.71143151796183L207.79778365384615,45.742670061684365L208.30516826923076,81.81701279165401L209.05038942307692,80.4602795125781L209.14552403846153,110.11412361697997L209.41507211538462,138.11763178123752L209.7797548076923,123.03307496022798L210.00173557692307,147.39882832424948L210.0968701923077,170.19955293476664L210.19200480769229,128.04707537012672L210.23957211538462,95.64017868710319L210.38227403846153,141.9609956665651L210.54479567307692,40.9503415005804L210.57650721153848,32.90495045836438L211.06803605769232,80.18670884401403L211.09974759615383,135.27634584077916L211.16317067307693,71.75125613183825L211.36929567307692,99.1320415340019L211.4961418269231,109.94807473025065L211.5437091346154,150.3595587119535L211.60713221153847,138.77013070565746L211.8608245192308,123.54046770382568L212.0035264423077,151.48895189036122L212.0986610576923,151.59701898936575L212.17793990384618,186.05874139374555L212.66946875,128.19703749511052L212.68532451923076,159.90832895548846L212.76460336538463,90.83517504075667L213.0341514423077,120.17239916365979L213.25613221153847,74.52977018371905L213.27198798076924,111.39124227134646L213.49396875,119.8339088452358L213.52568028846153,98.4139255741739L213.6049591346154,115.64865110193118L213.89036298076923,141.24877358954762L214.16387500000002,98.18522956404902L214.2590096153846,42.02300429007574L214.40171153846154,132.94084252061373L214.7188269230769,119.43180860354931L214.8773846153846,120.0956833393025L214.97251923076925,122.95916769163448L215.05179807692306,157.14955044077544L215.1786442307692,181.2568024182628L215.97143269230767,132.58475365028946L216.11413461538464,137.31971887583595L216.44710576923075,166.8339535580821L216.637375,153.65947939416432L216.7483653846154,101.00052398342119L216.81178846153847,156.6019362840787L217.3033173076923,125.46350969896623L217.69971153846154,119.39273422158233L217.74727884615385,115.98310981108624L217.8780889423077,120.05037145118278L218.13178125000002,132.81419542146696L218.27448317307693,70.85414158861789L218.76601201923077,130.63684556363222L218.7977235576923,128.42161834163534L218.86114663461538,173.68290534904466L218.95628125,143.69656197640163L218.98799278846153,175.84740214823609L219.0038485576923,152.9419346443135L219.44781009615383,80.33765517474941L219.59051201923077,127.20822866999605L219.6697908653846,152.6842170377903L219.78078125,161.98280800276189L219.8442043269231,127.72464797074929L220.22474278846153,133.21382665335716L220.28816586538463,102.22054085621681L220.31987740384616,118.9758313949473L220.65284855769232,143.50996305503023L220.6687043269231,116.52510427053855L220.68456009615383,115.3822518490263L220.9065408653846,129.83174395632335L221.00167548076922,146.57696153768038L221.09681009615386,112.72242850003735L221.14437740384616,66.81522620010631L221.5288798076923,132.26946080447004L221.56059134615384,94.83960997097013L221.5923028846154,131.87742363706505L222.25824519230767,99.99512783508999L222.7656298076923,73.82359863059546L222.89247596153845,165.53103155525855L223.51085096153844,123.34670692233715L224.1609375,88.73932276924226L224.25607211538463,90.98767808226968L224.33535096153847,111.10980826968358L224.39877403846154,70.62679587061304L224.74760096153847,120.49641231917705L224.85859134615384,94.06396412824463L225.21138221153845,155.26779998053726L225.5126418269231,84.7030711113932L226.38470913461538,112.37416014341898L226.5274110576923,120.33293375447116L227.4153341346154,117.10908502281573L227.58974759615387,144.53230068887376L228.04956490384617,112.76490352507298L228.27154567307693,126.83530828431964L228.33496875,158.2528916594466L228.39839182692307,143.0797599438595L228.60451682692306,156.03905754969256L228.9573076923077,142.17278642496268L229.40126923076923,136.4026796041353L229.4646923076923,170.5208499632565L229.49640384615384,134.49568198351162L229.54397115384614,105.75392934064071L229.79766346153846,32.493203855076054L230.00378846153845,118.27941813902005L230.1306346153846,85.40591619713506L230.1940576923077,42.18793373452273L230.22576923076923,125.18396624293565L230.2891923076923,106.48018215535961L230.41603846153845,124.3868920179011L230.43189423076922,119.85591083547313L230.49531730769232,57.11244943379355L230.54288461538462,112.8013811323035L230.5904519230769,106.45090683831509L230.6063076923077,105.7497261147458L230.89171153846152,131.46494633216042L231.24053846153845,124.416853052569L231.30396153846155,133.61166535708205L231.85891346153846,156.89774162924064L232.68737740384614,127.70327722181298" style="fill: none;" fill="none"></path></g></g></g></g><g opacity="0.2"><g><g><g><path stroke="rgb(0, 119, 187)" stroke-width="2px" d="M23.783653846153847,-22.94869162335199L24.243471153846155,65.25467415812557L24.48130769230769,123.06555371588496L24.49716346153846,101.75683266232123L24.624009615384615,89.20710999325715L24.909413461538463,84.29531707343578L25.131394230769228,-39.65313862536907L25.194817307692308,75.05264109115315L25.52778846153846,80.99300781462806L25.5595,80.57050283048633L25.98760576923077,92.78750167467764L26.035173076923076,28.38009862185985L26.098596153846156,55.697304173938115L26.225442307692308,44.67570099030021L26.526701923076924,78.48769032211774L26.716971153846153,115.17598835067889L27.129221153846157,-24.94958802277692L27.371021634615385,113.42773944503693L27.386877403846153,73.06480711449069L27.608858173076925,65.0419498437716L27.799127403846153,-42.74805892559904L27.973540865384614,82.01376256240265L28.021108173076925,88.01314016054052L28.51263701923077,98.78701725615454L28.560204326923078,33.357709594403495L28.988310096153846,54.32515185607395L29.178579326923078,15.749425727225404L29.30542548076923,57.436814134774174L29.495694711538462,75.49069219816009L29.622540865384615,19.339200275700637L29.876233173076923,97.15292656634534L30.082358173076923,36.53450000913079L30.415329326923075,165.55066980087267L30.431185096153843,138.11654636618084L30.573887019230767,102.93217474426741L30.811723557692307,133.0366437449619L30.87911057692308,33.85408165937819L31.03766826923077,26.58682115324438L31.116947115384615,87.20009633246809L31.132802884615383,-29.595303070482046L32.861081730769236,-138.0591764732797L32.92450480769231,47.76579187366378L32.956216346153845,-806.8448271679895L33.60630288461539,-13.32380179192744L33.7014375,15.433765841947293L33.71729326923077,-16.91583006827365L33.939274038461534,-1.4898906913586354L34.08197596153846,1.467414225401714L34.20882211538462,55.092063254460534L34.94215144230769,19.943429317358586L35.00557451923077,6.3762635006568935L35.306834134615386,-50.82978908764206L35.90935336538462,-8.883497941607134L36.00448798076923,50.788592882021966L36.25818028846154,107.57614200301136L36.702141826923075,-187.7227837829519L37.09853605769231,-84.42937606623003L37.24123798076923,65.55796153733638L37.55835336538461,52.815384154740165L38.450240384615384,46.30063878528639L39.35401923076923,-105.4992019654685L39.43329807692308,53.78614293933578L39.607711538461544,71.64017513334484L39.71870192307692,6.531402768184649L39.782125,-35.47215146355204L39.81383653846154,170.76919968338086L39.956538461538464,-237.65987407060217L40.25779807692307,117.76938520794336L40.49563461538461,77.94486386633278L40.59076923076923,-19.50476546424245L40.923740384615385,-82.09736564755448L41.018875,80.76418544405273L41.09815384615384,59.30929403999886L41.129865384615385,109.18640756961291L41.351846153846154,-36.59593377114347L41.764096153846154,-11.8921326604905L41.77995192307692,80.53186749555502L41.974185096153846,55.646204344046815L42.132742788461535,-9.306554859105022L42.16445432692308,-1.3069247837910387L42.29130048076923,50.42128123349641L42.43400240384615,122.46854580230345L42.83039663461538,63.19398497844979L42.941387019230774,106.1580872276931L43.27435817307692,72.6289637409084L43.36949278846154,109.08080432080065L43.40120432692308,35.00214903464073L43.44877163461538,64.79390179462331L43.512194711538456,67.21376160582128L43.60732932692308,73.74253528141084L43.67075240384615,-62.25237185453138L43.75003125,52.318276178623925L44.09885817307693,59.58691651814815L44.526963942307695,-16.606471422145045L44.84407932692308,78.21540319974467L45.081915865384616,32.31027806774777L45.14533894230769,12.299152334520018L45.31975240384615,92.03963197707864L45.33560817307692,-17.911379859450175L45.989658653846156,76.30732359304757L46.32262980769231,127.35540973220486L46.33848557692308,146.73043227245634L46.623889423076925,83.91917449121163L46.63974519230769,71.54515060719234L47.21055288461538,46.00526245084722L47.33739903846154,87.81623793572984L47.46424519230769,63.66013869217462L47.511812500000005,98.06444450404628L48.066764423076926,51.32010470400562L48.11433173076923,113.61613269727346L48.3363125,77.86708725756033L48.38387980769231,31.452941587843377L48.46315865384616,-3.0405014610483727L48.65342788461538,55.045976819221046L48.827841346153846,70.90711564746951L49.323334134615386,107.78665858394066L49.45018028846154,83.39028435266975L50.00513221153846,84.7926090273374L50.24296875,35.3995410510771L50.512516826923076,128.85542661091313L50.54422836538461,22.758151450443854L50.59179567307692,44.02911106355686L50.655218749999996,39.732125908053185L51.66998798076923,-31.068827148094574L51.70169951923077,105.17164433689322L51.89196875,28.510768843931107L51.93953605769231,79.12158578166937L52.81160336538461,108.55140824334896L52.878990384615385,-57.10651319725112L53.021692307692305,41.29372935041982L53.13268269230769,25.662516759459027L53.46565384615385,89.66296095100031L53.640067307692306,46.291347907124326L53.68763461538462,19.547509123205305L53.78276923076923,36.87734261219986L53.798625,73.17353798565453L54.03646153846154,83.23017768493654L54.22673076923077,175.0060241030629L54.29015384615385,46.90652362701281L54.36943269230769,44.7606987271491L54.401144230769226,113.41191735549364L54.607269230769234,18.706914621771155L54.623125,-9.601103293509915L54.70240384615385,121.10384458474749L54.90852884615384,87.62273929994885L56.35140384615384,120.4002215445341L56.498069711538456,72.2253624742152L56.65662740384615,15.77900015622641L56.831040865384615,147.3652476209349L57.053021634615384,71.76279632730541L57.06887740384615,75.73138113589292L57.13230048076923,161.00959211860652L57.14815625,29.79295602474092L57.449415865384616,46.63087891005643L58.32148317307692,72.76749901330497L58.55931971153846,102.28595277309483L58.65445432692308,99.96889054948198L59.03499278846154,71.0286789691641L59.114271634615385,35.232351238606476L60.307418269230766,103.11652048522541L60.67210096153846,62.31549105322585L60.941649038461534,120.02145727886818L61.496600961538455,56.318321188512634L62.162543269230774,-14.788908885858477L62.241822115384615,103.52890669117083L62.44794711538462,22.94599276932418L62.57479326923077,75.8544162798706L62.62236057692308,53.49945955525616L62.93947596153846,103.64214501807666L63.14560096153846,68.55578756132827L63.22487980769231,110.74373352846929L63.44686057692307,85.98234737099014L63.478572115384615,63.47717278460704L63.621274038461536,100.56005716837743L63.65298557692308,115.37289057548956L64.22775721153846,195.6406505509679L64.40217067307692,103.52177755198707L64.41802644230769,73.80453579508632L64.75099759615384,44.63623775533464L64.86198798076923,18.246510213839663L65.19495913461539,124.62085591910207L65.32180528846153,135.19534708980274L65.44865144230769,148.40205443048453L65.87675721153846,76.7428909999518L65.94018028846153,195.17596865952615L66.05117067307692,117.20310158452153L66.09873798076923,113.4270035338954L66.24143990384614,72.89798525759085L66.47927644230768,83.85676002751902L66.55855528846155,131.6248442143468L66.62197836538462,26.643854266714403L66.81224759615384,92.11759256363646L66.82810336538462,37.0342296686888L66.8915264423077,138.2075233810548L66.97080528846153,113.5650788618285L66.9866610576923,93.0959404318793L67.19278605769232,47.629924279155325L67.20864182692307,67.72223021018517L67.22449759615384,10.783911294070965L67.3037764423077,115.5715405892614L67.38305528846153,31.288051497690084L67.43062259615385,86.66476697143766L67.59314423076923,86.03597689543052L67.70413461538462,-2.8582254701760057L68.13224038461539,105.53343665185717L68.48106730769231,96.79444585151836L68.63962500000001,102.93861396675597L68.90917307692307,72.1447802042156L68.92502884615385,40.47553414435655L69.86051923076923,101.22352705693005L70.06664423076923,101.11484218021255L70.35204807692307,147.95535636756438L70.39961538461539,112.49281033414549L70.51060576923076,66.70800667379183L70.55817307692308,141.23506181738674L70.68501923076923,87.34369099396281L71.4183485576923,123.9551782971248L71.65618509615385,127.14001773996279L71.86231009615385,96.72527020421278L72.43311778846154,80.92038258384646L72.4489735576923,22.34797297792307L72.75023317307694,197.69195686358896L72.76608894230769,137.84416725491508L72.78194471153846,130.48100832814816L73.00392548076923,31.663366179879993L73.01978125,75.69329773431777L73.03563701923078,92.20889153963486L73.14662740384615,151.0237838666986L73.41617548076923,85.92710804092764L73.86013701923078,76.26399682458889L74.16139663461539,128.1200214082741L74.27238701923076,13.95421649186337L74.3516658653846,162.58030246134982L74.55779086538462,72.41536553207385L74.60535817307692,162.91514203075454L74.74806009615384,70.75749571350336L74.94229326923076,42.147938207972636L75.32283173076924,136.00687310114571L75.37039903846154,-23.86071549996272L75.97291826923076,78.55893571950894L76.51201442307693,93.81064813366226L76.76570673076922,94.96892627601378L77.05111057692308,88.1348874600205L77.22552403846154,100.47832503721915L77.35237019230769,82.76733557134867L77.52678365384615,64.61498339833425L77.74876442307692,77.21226432492091L78.43056250000001,5.477761991272106L78.78335336538463,54.446991144446635L78.79920913461538,41.2638329602944L78.91019951923077,108.0033844151268L78.94191105769231,110.79510932503867L79.05290144230769,91.81637493451126L79.46515144230769,109.83124970739507L79.75055528846153,30.95978913411296L80.09938221153845,71.23942552232515L80.14694951923076,81.62023407945941L80.25793990384615,102.23190929863735L80.4482091346154,127.63933344950368L80.63847836538461,106.02824490565607L80.84460336538461,136.46051632546423L80.86045913461538,93.19022904689024L80.89217067307692,46.42831936834511L81.11415144230769,85.2474021128146L81.49468990384615,58.32878443277772L81.54225721153847,102.0715726586724L81.57396874999999,-7.3200087269402525L81.60568028846154,42.67945002995628L81.65324759615385,72.00997048197313L81.71667067307693,97.82472144968673L81.76423798076922,135.97840253885704L82.06549759615385,75.80855981686285L82.41828846153845,29.714167538148846L82.49756730769231,13.880717366601163L82.94152884615384,148.02821157057772L82.98909615384615,63.30041612729628L83.08423076923077,79.0629428625772L83.19522115384616,78.69227361946831L83.22693269230768,79.70047188339022L83.52819230769231,127.06941626482045L83.54404807692308,151.3223338179357L83.60747115384615,28.821277351218374L83.65503846153847,147.13334362245433L84.57467307692308,49.032892876071834L84.60638461538461,145.57266006901463L84.76494230769231,67.99865683272945L84.90764423076924,44.8360836247115L85.43088461538461,92.25263225811068L85.57358653846154,86.68137096656885L85.63700961538461,88.27949399933485L85.73214423076924,87.34534679403129L85.92637740384616,28.956501023477973L85.97394471153846,149.89714990343367L86.44961778846154,135.98461178911384L86.59231971153845,35.36440129406814L86.68745432692307,130.73848523879758L87.17898317307693,142.50736019223197L87.21069471153845,121.1497470422016L87.3533966346154,36.10578577473225L87.52781009615384,86.81825043889694L87.62294471153845,88.57344450593726L87.73393509615384,-24.975758862748265L88.32059855769232,121.4509646713268L88.71699278846154,121.21538111713849L88.81212740384615,149.75277333635105L88.90726201923077,92.90363765170332L88.95482932692309,94.28480488105144L89.30365625,126.4337270218613L89.86257211538462,149.01341261132623L90.03698557692307,52.44430096161417L90.5919375,167.7885755823227L90.89319711538462,75.7078779738097L90.94076442307693,136.99281005303575L90.98833173076922,49.94151316365291L91.06761057692307,88.01327814387955L92.0348125,34.2466902533945L92.11409134615384,86.48824028635863L92.19337019230768,118.43400495765465L92.2885048076923,93.06586006396849L93.00201442307693,132.7754412841584L93.25967067307693,127.1662805688268L93.6877764423077,127.34818860412841L93.8939014423077,90.59959185640659L94.02074759615385,103.10322809023117L94.19516105769232,180.96570849400348L94.38543028846154,70.691401694103L94.75011298076923,66.60856668079005L94.84524759615384,38.880768706173875L95.32092067307691,108.59248128393665L95.47947836538461,96.14895979148734L95.5429014423077,113.3679466647861L95.93929567307693,158.0980056815149L96.00271875,141.4614464823057L96.09785336538462,133.39480249866446L96.65280528846155,-35.31531040150946L96.70037259615384,104.98320509021038L97.291,-25.874996283274598L97.44955769230769,80.75829815492033L97.7508173076923,85.13522165817474L97.87766346153846,150.95355034712705L97.94108653846153,-39.25938017019409L97.97279807692307,33.644346984036765L98.06793269230769,100.68111455116221L98.2106346153846,108.56773627180206L98.35333653846155,113.65633184338054L98.57531730769232,72.11088229725802L98.68630769230768,29.833431137526112L99.03513461538462,145.91628457767158L99.146125,129.58425460772457L99.24125961538462,62.49661718293957L99.3046826923077,152.21168243249747L99.32053846153846,174.1838273801675L99.74864423076923,78.3191206762567L99.79621153846155,101.95778239841042L99.84377884615385,108.33771804562171L99.90720192307693,116.04629526445311L100.16089423076923,116.7397995264702L100.19260576923078,138.7205914300534L100.24017307692307,55.932887728126445L100.25602884615385,153.6026004844711L100.382875,132.68225653585978L100.98935817307692,125.91109212802257L101.19548317307692,140.99354497961968L101.43331971153846,115.51538137027197L101.73457932692308,117.07459310142856L101.79800240384616,102.94523716702992L101.90899278846153,131.4226986226526L102.05169471153847,132.4164546304216L102.5432235576923,33.21333302732089L102.71763701923076,191.30944552738222L103.22502163461539,105.3000608310935L103.60556009615385,81.43050698827885L103.90681971153846,170.91412818381966L104.11294471153846,159.17574754831315L104.12880048076923,184.63864100147373L104.25961057692307,55.71855360815034L104.29132211538462,69.83590499205248L104.95726442307694,85.99973327170923L105.02068750000001,190.09224849926045L105.08411057692308,109.58140787483924L105.25852403846154,107.74880515459725L105.27437980769231,91.85202063043002L105.30609134615385,132.4949671503356L105.32194711538462,168.9846611595713L105.82933173076924,80.64335803349967L106.00374519230769,147.49108842613975L106.03545673076923,27.73295676176034L106.11473557692308,92.42313367071827L106.14644711538462,107.40918216277247L106.32086057692307,189.78325780870261L106.43185096153846,23.490567014070326L106.63797596153846,103.96580793701911L106.8758125,115.00654481033729L107.01851442307692,171.9130355695795L107.06608173076923,152.83150359146697L107.54175480769231,97.3642710473089L107.91040144230769,100.33955979259085L107.92625721153847,157.42846452604448L107.97382451923077,171.38966476459925L108.00553605769231,202.66538234151503L108.06895913461538,34.32837639010642L108.16409375,145.25833402268057L108.60805528846154,51.004812774298294L108.73490144230769,210.30952134101454L109.09958413461538,187.44917763994144L109.24228605769231,151.28250262739937L109.25814182692308,92.57560526035792L109.9240841346154,170.48339019378184L110.06678605769231,80.99857314263603L110.14606490384615,157.20690927799194L110.85957451923078,55.307179280024535L110.93885336538462,111.92211124387437L110.95470913461538,178.3906634208314L111.12912259615383,142.40493056021765L111.513625,152.77373456685538L111.86245192307693,118.79538332260148L112.44911538461538,105.39002596814784L113.22604807692306,33.053364342926706L113.44802884615385,113.60012662994475L114.33595192307692,124.86297068467164L114.44694230769231,179.03067614174716L114.79576923076924,145.58277884721093L114.84333653846154,157.1964685386712L114.87504807692308,117.53932098731664L114.89090384615383,168.5630760643565L115.25955048076922,156.07038650876245L115.3863966346154,159.29809277559565L116.06819471153845,152.44974968678852L116.60729086538461,170.4302666082513L116.81341586538461,102.06315567499092L116.86098317307692,150.94743308576292L117.90746394230769,147.43801083505554L118.03431009615385,104.2269184089299L118.16115625,164.8338003601114L118.43070432692308,117.96141202144125L118.57340625,83.98614240509258L118.68439663461538,124.50678969216202L118.77953125,58.20639321104887L118.8786298076923,55.524503039013176L119.4494375,191.25195246944872L119.57628365384615,137.02992757123764L119.94096634615384,131.64337997622457L119.97267788461538,12.247730543504291L119.98853365384615,132.99823838226231L120.49591826923077,122.185863935056L120.52762980769232,199.32223001435136L120.8447451923077,116.62531934951299L120.92402403846154,87.38954745697056L120.95573557692308,177.72383593769547L120.98744711538463,98.1491662742171L121.39969711538463,152.66730341800888L121.98636057692308,102.9870001243128L122.0814951923077,120.02228517890242L122.24005288461538,100.32359971970851L122.30347596153845,146.5224453860761L122.59284375,144.35136953516798L123.1636514423077,122.33782958578584L123.19536298076922,60.68682770808558L123.30635336538461,87.43696773115411L123.43319951923077,82.03377014656351L123.44905528846154,143.50663553356262L123.49662259615386,151.1370681880508L123.94058413461538,102.7209682466429L124.00400721153846,-4.4616838587182475L124.03571875,95.35247396409977L124.24184375,137.36416921283984L124.41625721153846,141.38794735704352L124.43211298076923,115.35260702465062L124.51139182692307,122.40557940525468L124.59067067307693,124.48365448564957L125.17733413461538,163.67165868426676L125.46273798076923,119.38392825805516L125.76399759615384,137.88496432882468L126.01768990384616,85.40778474722589L126.24363461538462,235.07398912639897L126.52903846153846,75.9336187164798L126.57660576923077,101.75904039574587L127.11570192307693,95.15879135053339L127.16326923076923,52.17550941716345L127.30597115384616,18.373178919078743L127.40110576923077,58.08110433920019L127.48038461538462,87.82244718598668L127.68650961538461,53.36133823287671L127.76578846153846,168.12447302399337L128.01948076923077,187.6581764041413L128.0987596153846,80.56732921368841L128.17803846153848,111.40421377800936L128.24146153846155,87.91411411755584L128.49515384615384,60.03315463660483L129.03425000000001,193.01961103144902L129.41478846153845,133.3267307180712L129.9737043269231,104.53595509393406L130.08469471153848,78.53879015200904L130.1639735576923,85.52681837437142L130.2273966346154,197.12420141788402L130.32253125,136.8578163530079L130.38595432692307,147.73232929722874L130.6396466346154,44.797724256458274L130.81406009615384,162.7223793061151L131.0518966346154,112.92497415202004L131.1945985576923,158.68986221710554L131.4641466346154,130.59125701604145L131.76540624999998,143.73927544318474L132.01909855769233,183.14239566736592L132.09837740384614,84.41301686163725L132.13008894230768,146.25181406377152L132.2252235576923,104.36296998122374L132.36792548076923,41.34906066937503L132.62161778846155,139.19534610524508L133.23999278846154,51.993141437398386L133.27170432692307,72.13944484843938L133.31927163461538,207.88501609073555L133.49764903846153,6.471380015702087L133.6086394230769,159.6414873120209L134.21115865384616,113.77104199256948L134.46485096153847,127.07281985385012L134.54412980769231,138.4443487852945L134.57584134615385,177.64541540667418L134.8929567307692,168.7224928153945L135.0673701923077,140.73478022447256L135.30520673076924,125.05012208685679L135.46376442307692,121.83961774295729L135.9870048076923,136.39400835604675L136.46267788461537,75.41093782819475L136.51024519230768,43.25608240380614L136.60537980769232,118.90963352732693L137.2118629807692,94.15758424245618L137.41798798076923,159.49177538916206L137.43384375,122.00524374425211L137.46555528846153,148.9575753534612L137.56068990384614,42.4296541918468L137.60825721153847,79.01211899936398L137.8936610576923,143.8363237249765L138.17906490384615,112.91439542936028L138.55960336538462,98.93396951223258L138.6230264423077,122.08440018641497L138.8132956730769,168.74663989972657L138.95599759615382,91.6200706375031L139.49509375,113.20126279122529L139.90734375000002,163.10155752179813L139.97076682692307,18.400913570225875L140.0024783653846,87.13110466294788L140.20860336538462,149.7493697473214L140.28788221153846,237.30964117997794L140.43058413461537,96.35542886113814L140.71598798076923,119.76416434600418L141.33832692307692,132.28868205847021L141.51274038461537,107.28159356860644L141.52859615384617,157.99447218278823L141.97255769230767,170.62022367166358L142.03598076923078,131.50176307592275L142.0676923076923,56.036881171316566L142.25796153846153,38.874421472578014L142.6385,112.29466625928347L142.82876923076924,158.95658401147065L142.95561538461538,201.97624755190088L143.05075,153.64045391381453L143.22516346153844,84.74564869761733L143.35200961538462,118.22854776582349L143.38372115384615,128.00839288699044L143.47885576923076,151.11600273162395L144.0179519230769,148.75115227825674L144.16065384615382,106.43842337817685L144.19236538461539,104.81698116111303L144.2399326923077,129.5980529416286L144.73542548076924,77.36335608117015L144.75128125,92.00784981465299L144.83056009615385,143.7202797368435L145.08425240384614,97.60459202947095L145.1001081730769,26.353721299158785L146.05145432692308,146.87292306723873L146.1465889423077,161.36117366648148L146.19415625,37.400345461609355L146.60640625,37.24299846065694L146.68568509615383,129.81073126153623L147.20892548076924,226.75060414324983L147.22478125,91.27253660090666L147.63703124999998,163.22703037143222L147.9065793269231,163.0154559182369L147.97000240384614,122.70992465673149L148.09684855769228,52.187651950999005L148.18009134615386,65.09718917383412L148.19594711538463,115.7241501622401L148.29108173076924,98.14051931830389L148.60819711538463,92.18787207765438L148.8143221153846,87.94281465207625L148.90945673076922,124.80570759896987L149.30585096153848,145.12062665031826L149.35341826923076,125.80746664040323L150.25719711538463,123.57186058127056L150.9389951923077,164.43424660469674L150.95485096153845,179.133703701564L150.9865625,145.69684507415099L151.20854326923077,85.42061719775666L151.33538942307692,144.16187241621915L151.70007211538464,78.12428820153166L151.71592788461538,176.21747182539136L152.00529567307692,138.5715234294434L152.41754567307694,126.7357265565744L152.7346610576923,100.10664391629065L152.76637259615387,172.18049327508615L153.06763221153847,130.88373570036077L153.08348798076923,189.56027673281332L153.52744951923077,101.31404412734057L153.65429567307692,154.86280231992717L153.67015144230768,50.795630032313035L153.9079879807692,34.46548583466623L154.11411298076922,143.5255852454575L154.12996875,91.06818327578782L154.52636298076922,9.762926574064657L154.87518990384615,170.2926052303353L154.9703245192308,116.69762261917018L155.01789182692306,123.44160430921642L155.03374759615383,77.17045537319167L155.09717067307693,97.3587517137473L155.17644951923077,128.98080747165451L155.2557283653846,177.44032617041378L156.02076923076925,90.39661836467816L156.06833653846155,99.26876308719096L156.24275,166.09372622888938L156.46473076923075,187.6701349601915L156.78184615384615,111.04600902986047L157.00382692307693,166.66097573568447L157.08310576923077,68.84559856775948L157.73319230769232,139.11485582413817L157.7966153846154,81.46564674528781L158.27228846153847,130.3645963844444L158.47841346153845,114.85522308185631L158.74796153846154,63.233770174539764L158.89066346153848,-39.97491577201131L159.18003125,122.50699715944938L159.27516586538462,152.2120963825146L159.41786778846154,109.78382943321152L160.09966586538462,116.46852428191674L160.28993509615387,119.62130559565101L160.32164663461538,117.94181838729752L160.43263701923078,98.99937361493772L160.9400216346154,30.559545462003076L161.00344471153846,46.35946568216395L161.4949735576923,167.48749593653653L161.59010817307694,158.7978111826815L161.87551201923077,102.99297940233788L161.97064663461538,135.71591223355583L162.4146081730769,128.39631004747935L162.44631971153845,160.34014295202883L162.79514663461538,139.18076586575316L162.8308221153846,60.88051032165196L162.9893798076923,48.43174546231912L163.16379326923075,83.40169097536376L163.4967644230769,96.8291716585102L163.54433173076924,116.98904343122351L163.70288942307693,106.94914571041176L164.21027403846153,116.17392985306547L164.28955288461538,122.95438513906473L164.40054326923078,179.26120030683734L164.57495673076923,125.58246180887468L164.67009134615384,128.92179659699158L165.03477403846156,174.49001240949815L165.0981971153846,206.00393522404403L165.39945673076923,125.58834909800706L165.81170673076923,128.38715715265633L165.8751298076923,109.65463103342336L166.01783173076922,85.1976821163137L166.11296634615385,147.75836215386101L166.1922451923077,138.36096085406774L166.4459375,205.4205416665812L166.87800721153846,96.3653176671027L167.13169951923078,128.84737758280244L167.2744014423077,44.55363172969579L167.3853918269231,27.080019601421135L167.4646706730769,100.74021741471785L168.20989182692307,80.7826292170378L168.27331490384614,54.296957260463365L168.76484375,13.260482257614546L168.95511298076923,147.89404577058409L169.36736298076923,110.72947525010179L169.41493028846153,81.86892605085657L169.5259206730769,81.51670058073276L169.57348798076924,85.8693850107624L169.65276682692306,121.30488630972937L169.71618990384616,137.84356932711256L169.85889182692307,142.57336222273963L169.87474759615384,120.24586418259423L169.9381706730769,107.07829811575357L170.06501682692308,140.92045980437462L170.35438461538462,67.30988999868609L170.97275961538463,112.4926263563601L171.16302884615382,86.82133206680217L171.1947403846154,116.47753919340072L171.3057307692308,87.07011602709203L171.46428846153847,199.52925101735832L171.4801442307692,130.21617230608328L171.5435673076923,74.23720555187069L171.63870192307695,112.19706604413555L171.68626923076923,120.6864909785966L171.82897115384614,133.45855080130113L171.93996153846155,148.14885500334537L172.05095192307692,85.12344707990997L172.14608653846153,152.16587196393604L172.1619423076923,88.30124937245688L172.25707692307694,127.7282867087384L172.33635576923078,109.37107527169532L172.49491346153846,87.53544184078262L172.65347115384614,137.71294509948765L172.74860576923078,41.26636265484347L172.9864423076923,137.47943129538493L173.351125,176.55033363360315L173.38283653846156,181.7047472579039L173.58896153846152,107.86121558146884L173.8109423076923,108.36057728545607L173.84661778846151,-8.87567888572816L174.10031009615386,210.0694763255306L174.11616586538463,137.28446083732084L174.1320216346154,125.13723556823763L174.60769471153847,145.78110689985834L174.89309855769233,156.1411719616902L175.03580048076924,124.02637770006966L175.17850240384615,184.83292154284263L175.33706009615383,143.5207558285911L175.41633894230768,84.51277881576347L175.7651658653846,153.00582254312135L175.89201201923075,98.82487068549796L175.98714663461539,175.64166735157573L176.1932716346154,100.55890730721876L176.71651201923075,115.36511751405695L176.95434855769233,71.21748617141773L177.0019158653846,57.52208783830116L177.01777163461537,93.2749048226147L177.06533894230768,63.45182984466995L177.20804086538462,127.07465963170398L177.2714639423077,79.29622669444818L177.33488701923076,112.11446001849669L177.5291201923077,181.5496539848225L177.54497596153846,101.73894082269231L177.65596634615383,140.05065882951024L178.03650480769232,141.1391174023073L178.06821634615386,99.39947930370857L178.30605288461538,156.75390997592228L178.32190865384615,187.33589331858926L178.6073125,200.9011273685444L178.86100480769232,108.74246917347358L179.0195625,119.87344715052419L179.25739903846153,109.21391224852829L179.4318125,189.15520364383704L179.63793750000002,195.009238791519L179.84406249999998,131.7786496429305L180.1136105769231,72.63577091896772L180.22460096153847,157.8395628874922L180.54171634615383,-8.77159345364537L180.6527067307692,192.40342343374093L180.70027403846154,115.47624009643083L180.8905432692308,155.96206958761573L180.90639903846156,145.7686883993447L181.40189182692308,183.44789078000136L181.41774759615384,105.83644806438991L181.4336033653846,103.80956480277902L181.5921610576923,74.17879260501026L181.7982860576923,110.0740083952135L181.89342067307692,81.03371289964498L182.02026682692306,85.64194247357746L182.1154014423077,148.0476672213824L183.22530528846156,173.10217598542974L183.6534110576923,110.72832538894312L184.14493990384616,158.08153966972273L184.22421875,90.6592466533184L184.41448798076922,147.4358950905236L185.22709615384616,155.745527734215L185.2588076923077,156.9928511246939L185.52835576923076,123.96847069211904L185.63934615384613,121.0222964313746L185.79790384615384,75.66206750524829L186.4955576923077,54.513315136078724L186.5906923076923,179.5845872591017L186.66997115384615,161.46815674868415L186.92366346153847,117.31900758931548L187.55789423076922,161.64909890061247L187.65302884615386,140.278745288944L187.70059615384613,163.8447817803161L187.7164519230769,70.67525764343527L188.192125,103.93172605227613L188.4973485576923,116.58829382020382L188.64005048076922,148.95283792548747L188.8144639423077,159.48634804449313L189.29013701923077,197.9536192688559L189.3852716346154,112.3372571166006L189.40112740384615,103.82948039804718L189.49626201923078,106.0256232222143L190.17806009615387,183.06365317522017L190.44760817307693,148.30647797097586L190.81229086538463,22.321848132398078L190.9708485576923,48.40759837798705L191.12940625000002,145.46466510899234L191.31967548076923,124.34824683560458L191.4465216346154,-10.20344656286765L191.68435817307693,153.40997574317072L191.96976201923076,106.41956565517467L192.2749855769231,114.05574761545618L192.43354326923077,156.09057807070872L192.4652548076923,74.46524601685813L193.44831250000001,196.06563923521236L193.6068701923077,152.01786183559204L193.71786057692307,48.24910151587597L193.79713942307694,84.94673641704554L194.05083173076923,181.81531790692162L194.1618221153846,139.66793904145848L194.17767788461538,81.0665529343366L194.36794711538462,213.821473286271L194.46308173076923,85.51357197382353L194.85947596153846,112.44424019880327L195.06560096153848,114.67460289105242L195.2558701923077,103.43976945415073L195.58884134615383,136.34920976530495L196.11604567307694,122.58371589595586L196.46487259615384,122.47728474710935L196.5282956730769,95.39382297136555L196.86126682692307,130.43496788735501L197.71747836538464,68.01208721106272L197.9236033653846,150.68043532471972L198.44684375,158.91353320969006L198.46269951923077,-21.608045501235395L198.5419783653846,68.33069074090702L198.66882451923078,138.87554671979578L198.9542283653846,136.11592593343397L199.1286418269231,114.35365364444442L199.5924230769231,88.5426282268849L199.97296153846153,135.1088315362244L200.06809615384617,134.99320149810853L200.0839519230769,127.18904781976849L200.17908653846155,127.15602380729148L200.21079807692308,116.82636107449487L200.62304807692308,173.29443277115936L200.79746153846153,193.32331236067697L201.39998076923075,150.53670267988596L201.46340384615385,34.26357021520378L201.55853846153846,119.375419285481L201.66952884615384,169.78013510913922L201.6853846153846,116.5403216126641L201.87565384615385,134.19574978734767L202.16105769230768,169.45753006246275L202.60501923076924,105.63743009504729L202.77943269230767,189.33849151252903L203.12825961538462,127.55382977374498L203.3383485576923,94.26507326356867L203.35420432692308,49.830666547957115L203.48105048076923,169.64905093705084L203.67131971153847,85.87881387226349L203.87744471153846,57.808725227934424L204.35311778846153,45.98737061121832L204.5116754807692,86.10883209844386L204.55924278846155,157.63102406775582L204.59095432692308,33.17938912591695L205.13005048076923,185.46801285799927L205.20932932692307,74.55401529830746L205.24104086538463,97.76106513594277L205.36788701923078,108.33675216224843L205.41545432692308,136.42224894610368L205.4471658653846,92.24964261909813L205.5105889423077,138.39127119421028L205.84356009615385,105.09069411132285L205.8752716346154,253.07455962646893L206.08139663461537,112.36397988992809L206.44607932692307,129.61166729774726L206.46193509615384,191.0390901717557L206.92571634615385,105.7631329169131L207.1476971153846,60.852729676058495L207.27454326923078,132.52615138495875L207.79778365384615,14.303406328528288L208.30516826923076,97.79799867635924L209.05038942307692,79.85924471217939L209.14552403846153,123.25081934576988L209.41507211538462,150.52322630710634L209.7797548076923,116.35059452148354L210.00173557692307,158.19289222432835L210.0968701923077,180.3003068387043L210.19200480769229,109.37346698290536L210.23957211538462,81.28387669332524L210.38227403846153,162.48118442947248L210.54479567307692,-3.7975240534704096L210.57650721153848,29.34083061715186L211.06803605769232,101.13259603650243L211.09974759615383,159.68113452477184L211.16317067307693,43.609549723981324L211.36929567307692,111.26176897767333L211.4961418269231,114.73959304374044L211.5437091346154,168.26190442967763L211.60713221153847,133.63599737530708L211.8608245192308,116.79370501758864L212.0035264423077,163.87017071469955L212.0986610576923,151.64489287016582L212.17793990384618,201.32533414720095L212.66946875,102.564219173493L212.68532451923076,173.95647683187522L212.76460336538463,60.2356681838698L213.0341514423077,133.1688317837626L213.25613221153847,54.31001968322585L213.27198798076924,127.72092759732291L213.49396875,123.57402232024886L213.52568028846153,88.92484207602683L213.6049591346154,123.2836593804615L213.89036298076923,152.5896647925755L214.16387500000002,79.10801741999707L214.2590096153846,17.14305745153351L214.40171153846154,173.21757605131384L214.7188269230769,113.44728708473434L214.8773846153846,120.38978080521338L214.97251923076925,124.22769539172961L215.05179807692306,172.29593933541662L215.1786442307692,191.93634983108913L215.97143269230767,111.02296581224073L216.11413461538464,139.41731530331475L216.44710576923075,179.90880211140032L216.637375,147.82316832876367L216.7483653846154,77.67253074951336L216.81178846153847,181.2334421661882L217.3033173076923,111.66914178896695L217.69971153846154,116.70337192496352L217.74727884615385,114.4726412771436L217.8780889423077,121.85217422680996L218.13178125000002,138.46858785851927L218.27448317307693,43.40574833221864L218.76601201923077,157.12066969109168L218.7977235576923,127.44026948571471L218.86114663461538,193.73372080542947L218.95628125,130.41256859198413L218.98799278846153,190.09027073806752L219.0038485576923,142.79477948745316L219.44781009615383,48.1738546016526L219.59051201923077,147.97196036269557L219.6697908653846,163.97011664661116L219.78078125,166.1020972181245L219.8442043269231,112.54823364199339L220.22474278846153,135.64554073064522L220.28816586538463,88.49047052472763L220.31987740384616,126.3984492815133L220.65284855769232,154.37861878323437L220.6687043269231,104.5707728898186L220.68456009615383,114.87596657715872L220.9065408653846,136.2328898104939L221.00167548076922,153.99511708959474L221.09681009615386,97.7248215122215L221.14437740384616,46.47826933707774L221.5288798076923,161.26578118475823L221.56059134615384,78.25813204040085L221.5923028846154,148.28522853676364L222.25824519230767,85.87122478861627L222.7656298076923,62.22957342745003L222.89247596153845,206.15755667484234L223.51085096153844,104.65899023791177L224.1609375,73.40820165091593L224.25607211538463,91.98370273032091L224.33535096153847,120.02394097897091L224.39877403846154,52.692762960779596L224.74760096153847,142.58872436781948L224.85859134615384,82.35435143760073L225.21138221153845,182.38118758032633L225.5126418269231,53.4427943973569L226.38470913461538,124.63249251402782L226.5274110576923,123.85868194868922L227.4153341346154,115.6809153826741L227.58974759615387,156.68082480067721L228.04956490384617,98.69190074110935L228.27154567307693,133.06851789628024L228.33496875,172.17092643024603L228.39839182692307,136.35804069900354L228.60451682692306,161.7800450893618L228.9573076923077,136.03000830765814L229.40126923076923,133.8465139562364L229.4646923076923,185.63524866491625L229.49640384615384,118.53648058411532L229.54397115384614,93.02129144545844L229.79766346153846,0.038596749638306616L230.00378846153845,156.28283485643834L230.1306346153846,70.84290740036937L230.1940576923077,23.042305139974395L230.22576923076923,161.9513284075573L230.2891923076923,98.194378814976L230.41603846153845,132.31959032641527L230.43189423076922,117.84867963344524L230.49531730769232,29.317005493944215L230.54288461538462,137.47165823395233L230.5904519230769,103.63763756233467L230.6063076923077,105.43910204239988L230.89171153846152,142.85682599557498L231.24053846153845,121.29453755930133L231.30396153846155,137.6849804761088L231.85891346153846,167.21350701964863L232.68737740384614,114.77008736166837" style="fill: none;" fill="none"></path></g></g></g></g></g></g><g transform="translate(72, 177)" clip-path="url(#clip_1)"><clipPath id="clip_1"><rect width="257" height="23"></rect></clipPath><g><g><line x1="0" y1="0" x2="0" y2="5" style="visibility: inherit;" fill="rgb(0, 0, 0)" stroke="rgb(204, 204, 204)" stroke-width="1px"></line><line x1="19.81971153846154" y1="0" x2="19.81971153846154" y2="5" style="visibility: inherit;" fill="rgb(0, 0, 0)" stroke="rgb(204, 204, 204)" stroke-width="1px"></line><line x1="39.63942307692308" y1="0" x2="39.63942307692308" y2="5" style="visibility: inherit;" fill="rgb(0, 0, 0)" stroke="rgb(204, 204, 204)" stroke-width="1px"></line><line x1="59.45913461538462" y1="0" x2="59.45913461538462" y2="5" style="visibility: inherit;" fill="rgb(0, 0, 0)" stroke="rgb(204, 204, 204)" stroke-width="1px"></line><line x1="79.27884615384616" y1="0" x2="79.27884615384616" y2="5" style="visibility: inherit;" fill="rgb(0, 0, 0)" stroke="rgb(204, 204, 204)" stroke-width="1px"></line><line x1="99.0985576923077" y1="0" x2="99.0985576923077" y2="5" style="visibility: inherit;" fill="rgb(0, 0, 0)" stroke="rgb(204, 204, 204)" stroke-width="1px"></line><line x1="118.91826923076924" y1="0" x2="118.91826923076924" y2="5" style="visibility: inherit;" fill="rgb(0, 0, 0)" stroke="rgb(204, 204, 204)" stroke-width="1px"></line><line x1="138.73798076923077" y1="0" x2="138.73798076923077" y2="5" style="visibility: inherit;" fill="rgb(0, 0, 0)" stroke="rgb(204, 204, 204)" stroke-width="1px"></line><line x1="158.55769230769232" y1="0" x2="158.55769230769232" y2="5" style="visibility: inherit;" fill="rgb(0, 0, 0)" stroke="rgb(204, 204, 204)" stroke-width="1px"></line><line x1="178.37740384615384" y1="0" x2="178.37740384615384" y2="5" style="visibility: inherit;" fill="rgb(0, 0, 0)" stroke="rgb(204, 204, 204)" stroke-width="1px"></line><line x1="198.1971153846154" y1="0" x2="198.1971153846154" y2="5" style="visibility: inherit;" fill="rgb(0, 0, 0)" stroke="rgb(204, 204, 204)" stroke-width="1px"></line><line x1="218.01682692307693" y1="0" x2="218.01682692307693" y2="5" style="visibility: inherit;" fill="rgb(0, 0, 0)" stroke="rgb(204, 204, 204)" stroke-width="1px"></line><line x1="237.83653846153848" y1="0" x2="237.83653846153848" y2="5" style="visibility: inherit;" fill="rgb(0, 0, 0)" stroke="rgb(204, 204, 204)" stroke-width="1px"></line><line x1="257.65625" y1="0" x2="257.65625" y2="5" style="visibility: inherit;" fill="rgb(0, 0, 0)" stroke="rgb(204, 204, 204)" stroke-width="1px"></line></g><g transform="translate(0, 8)"><text x="0" y="0" dx="0em" dy="0.95em" style="text-anchor: middle; visibility: hidden; font-family: Roboto, sans-serif; font-size: 12px; font-weight: 200;" fill="rgb(33, 33, 33)" stroke="none" stroke-width="1px">-5k</text><text x="19.81971153846154" y="0" dx="0em" dy="0.95em" style="text-anchor: middle; visibility: inherit; font-family: Roboto, sans-serif; font-size: 12px; font-weight: 200;" fill="rgb(33, 33, 33)" stroke="none" stroke-width="1px">0</text><text x="39.63942307692308" y="0" dx="0em" dy="0.95em" style="text-anchor: middle; visibility: hidden; font-family: Roboto, sans-serif; font-size: 12px; font-weight: 200;" fill="rgb(33, 33, 33)" stroke="none" stroke-width="1px">5k</text><text x="59.45913461538462" y="0" dx="0em" dy="0.95em" style="text-anchor: middle; visibility: inherit; font-family: Roboto, sans-serif; font-size: 12px; font-weight: 200;" fill="rgb(33, 33, 33)" stroke="none" stroke-width="1px">10k</text><text x="79.27884615384616" y="0" dx="0em" dy="0.95em" style="text-anchor: middle; visibility: hidden; font-family: Roboto, sans-serif; font-size: 12px; font-weight: 200;" fill="rgb(33, 33, 33)" stroke="none" stroke-width="1px">15k</text><text x="99.0985576923077" y="0" dx="0em" dy="0.95em" style="text-anchor: middle; visibility: inherit; font-family: Roboto, sans-serif; font-size: 12px; font-weight: 200;" fill="rgb(33, 33, 33)" stroke="none" stroke-width="1px">20k</text><text x="118.91826923076924" y="0" dx="0em" dy="0.95em" style="text-anchor: middle; visibility: hidden; font-family: Roboto, sans-serif; font-size: 12px; font-weight: 200;" fill="rgb(33, 33, 33)" stroke="none" stroke-width="1px">25k</text><text x="138.73798076923077" y="0" dx="0em" dy="0.95em" style="text-anchor: middle; visibility: inherit; font-family: Roboto, sans-serif; font-size: 12px; font-weight: 200;" fill="rgb(33, 33, 33)" stroke="none" stroke-width="1px">30k</text><text x="158.55769230769232" y="0" dx="0em" dy="0.95em" style="text-anchor: middle; visibility: hidden; font-family: Roboto, sans-serif; font-size: 12px; font-weight: 200;" fill="rgb(33, 33, 33)" stroke="none" stroke-width="1px">35k</text><text x="178.37740384615384" y="0" dx="0em" dy="0.95em" style="text-anchor: middle; visibility: inherit; font-family: Roboto, sans-serif; font-size: 12px; font-weight: 200;" fill="rgb(33, 33, 33)" stroke="none" stroke-width="1px">40k</text><text x="198.1971153846154" y="0" dx="0em" dy="0.95em" style="text-anchor: middle; visibility: hidden; font-family: Roboto, sans-serif; font-size: 12px; font-weight: 200;" fill="rgb(33, 33, 33)" stroke="none" stroke-width="1px">45k</text><text x="218.01682692307693" y="0" dx="0em" dy="0.95em" style="text-anchor: middle; visibility: inherit; font-family: Roboto, sans-serif; font-size: 12px; font-weight: 200;" fill="rgb(33, 33, 33)" stroke="none" stroke-width="1px">50k</text><text x="237.83653846153848" y="0" dx="0em" dy="0.95em" style="text-anchor: middle; visibility: hidden; font-family: Roboto, sans-serif; font-size: 12px; font-weight: 200;" fill="rgb(33, 33, 33)" stroke="none" stroke-width="1px">55k</text><text x="257.65625" y="0" dx="0em" dy="0.95em" style="text-anchor: middle; visibility: hidden; font-family: Roboto, sans-serif; font-size: 12px; font-weight: 200;" fill="rgb(33, 33, 33)" stroke="none" stroke-width="1px">60k</text></g><line x1="0" y1="0" x2="257.65625" y2="0" fill="rgb(0, 0, 0)" stroke="rgb(204, 204, 204)" stroke-width="1px"></line></g></g></g></g></svg>